<svg xmlns="http://www.w3.org/2000/svg" xmlns:xlink="http://www.w3.org/1999/xlink" xmlns:inkscape="http://www.inkscape.org/namespaces/inkscape" version="1.1" width="228.195" height="122.693" viewBox="0 0 228.195 122.693">
<defs>
<clipPath id="clip_0">
<path transform="matrix(1,0,0,-1,1814.287,-6069.792)" d="M-1622.988-6146.487H-1619.471V-6138.288H-1622.988Z"/>
</clipPath>
<clipPath id="clip_1">
<path transform="matrix(1,0,0,-1,1814.287,-6069.792)" d="M-1619.753-6145.659H-1614.744V-6137.249H-1619.753Z"/>
</clipPath>
<clipPath id="clip_2">
<path transform="matrix(1,0,0,-1,1814.287,-6069.792)" d="M-1614.18-6144.219H-1609.197V-6135.24H-1614.18Z"/>
</clipPath>
<clipPath id="clip_3">
<path transform="matrix(1,0,0,-1,1814.287,-6069.792)" d="M-1609.452-6142.81H-1604.444V-6134.4H-1609.452Z"/>
</clipPath>
<clipPath id="clip_4">
<path transform="matrix(1,0,0,-1,1814.287,-6069.792)" d="M-1797.216-6146.756H-1779.935V-6133.263H-1797.216Z"/>
</clipPath>
<clipPath id="clip_5">
<path transform="matrix(1,0,0,-1,1814.287,-6069.792)" d="M-1778.794-6142.425H-1777.262V-6140.875H-1778.794Z"/>
</clipPath>
<clipPath id="clip_6">
<path transform="matrix(1,0,0,-1,1814.287,-6069.792)" d="M-1716.364-6109.123H-1686.206V-6089.196H-1716.364Z"/>
</clipPath>
<clipPath id="clip_7">
<path transform="matrix(1,0,0,-1,1814.287,-6069.792)" d="M-1708.217-6109.089H-1683.895V-6096.465H-1708.217Z"/>
</clipPath>
<clipPath id="clip_8">
<path transform="matrix(1,0,0,-1,1814.287,-6069.792)" d="M-1696.717-6109.058H-1693.871V-6105.058H-1696.717Z"/>
</clipPath>
<clipPath id="clip_9">
<path transform="matrix(1,0,0,-1,1814.287,-6069.792)" d="M-1699.875-6109.089H-1697.18V-6105.529H-1699.875Z"/>
</clipPath>
<clipPath id="clip_10">
<path transform="matrix(1,0,0,-1,1814.287,-6069.792)" d="M-1814.287-6192.485H-1586.092V-6069.791H-1814.287Z"/>
</clipPath>
<clipPath id="clip_11">
<path transform="matrix(1,0,0,-1,1814.287,-6069.792)" d="M-1725.945-6138.672H-1719.047V-6129.863H-1725.945Z"/>
</clipPath>
<clipPath id="clip_12">
<path transform="matrix(1,0,0,-1,1814.287,-6069.792)" d="M-1675.817-6138.768H-1667.948V-6129.345H-1675.817Z"/>
</clipPath>
<clipPath id="clip_13">
<path transform="matrix(1,0,0,-1,1814.287,-6069.792)" d="M-1750.133-6140.713H-1736.986V-6121.216H-1750.133Z"/>
</clipPath>
<clipPath id="clip_14">
<path transform="matrix(1,0,0,-1,1814.287,-6069.792)" d="M-1707.072-6097.893H-1706.675V-6097.218H-1707.072Z"/>
</clipPath>
<clipPath id="clip_15">
<path transform="matrix(1,0,0,-1,1814.287,-6069.792)" d="M-1761.049-6146.121H-1730.605V-6116.292H-1761.049Z"/>
</clipPath>
<clipPath id="clip_16">
<path transform="matrix(1,0,0,-1,1814.287,-6069.792)" d="M-1759.623-6144.695H-1732.031V-6117.719H-1759.623Z"/>
</clipPath>
<clipPath id="clip_17">
<path transform="matrix(1,0,0,-1,1814.287,-6069.792)" d="M-1732.391-6154.441H-1637.803V-6118.148H-1732.391Z"/>
</clipPath>
<clipPath id="clip_18">
<path transform="matrix(1,0,0,-1,1814.287,-6069.792)" d="M-1730.965-6153.018H-1639.483V-6120.212H-1730.965Z"/>
</clipPath>
<clipPath id="clip_19">
<path transform="matrix(1,0,0,-1,1814.287,-6069.792)" d="M-1656.397-6152.207H-1652.124V-6146.05H-1656.397Z"/>
</clipPath>
<clipPath id="clip_20">
<path transform="matrix(1,0,0,-1,1814.287,-6069.792)" d="M-1729.783-6152.224H-1725.906V-6146.206H-1729.783Z"/>
</clipPath>
<clipPath id="clip_21">
<path transform="matrix(1,0,0,-1,1814.287,-6069.792)" d="M-1720.74-6152.224H-1716.864V-6146.206H-1720.74Z"/>
</clipPath>
<clipPath id="clip_22">
<path transform="matrix(1,0,0,-1,1814.287,-6069.792)" d="M-1661.168-6152.224H-1657.29V-6146.206H-1661.168Z"/>
</clipPath>
<clipPath id="clip_23">
<path transform="matrix(1,0,0,-1,1814.287,-6069.792)" d="M-1736.923-6152.224H-1731.233V-6146.206H-1736.923Z"/>
</clipPath>
<clipPath id="clip_24">
<path transform="matrix(1,0,0,-1,1814.287,-6069.792)" d="M-1724.837-6152.224H-1720.952V-6146.206H-1724.837Z"/>
</clipPath>
<clipPath id="clip_25">
<path transform="matrix(1,0,0,-1,1814.287,-6069.792)" d="M-1696-6152.224H-1691.853V-6146.206H-1696Z"/>
</clipPath>
<clipPath id="clip_26">
<path transform="matrix(1,0,0,-1,1814.287,-6069.792)" d="M-1690.432-6152.224H-1686.133V-6146.206H-1690.432Z"/>
</clipPath>
<clipPath id="clip_27">
<path transform="matrix(1,0,0,-1,1814.287,-6069.792)" d="M-1685.14-6152.332H-1678.924V-6146.116H-1685.14Z"/>
</clipPath>
<clipPath id="clip_28">
<path transform="matrix(1,0,0,-1,1814.287,-6069.792)" d="M-1677.453-6152.224H-1673.009V-6146.206H-1677.453Z"/>
</clipPath>
<clipPath id="clip_29">
<path transform="matrix(1,0,0,-1,1814.287,-6069.792)" d="M-1666.837-6152.332H-1662.312V-6146.116H-1666.837Z"/>
</clipPath>
<clipPath id="clip_30">
<path transform="matrix(1,0,0,-1,1814.287,-6069.792)" d="M-1671.806-6152.224H-1668.053V-6146.206H-1671.806Z"/>
</clipPath>
<clipPath id="clip_31">
<path transform="matrix(1,0,0,-1,1814.287,-6069.792)" d="M-1732.64-6170.043H-1660.266V-6161.289H-1732.64Z"/>
</clipPath>
<clipPath id="clip_32">
<path transform="matrix(1,0,0,-1,1814.287,-6069.792)" d="M-1718.422-6168.549H-1715.168V-6161.398H-1718.422Z"/>
</clipPath>
<clipPath id="clip_33">
<path transform="matrix(1,0,0,-1,1814.287,-6069.792)" d="M-1684.542-6168.549H-1683.502V-6161.398H-1684.542Z"/>
</clipPath>
<clipPath id="clip_34">
<path transform="matrix(1,0,0,-1,1814.287,-6069.792)" d="M-1732.64-6168.549H-1725.897V-6161.398H-1732.64Z"/>
</clipPath>
<clipPath id="clip_35">
<path transform="matrix(1,0,0,-1,1814.287,-6069.792)" d="M-1699.22-6168.549H-1692.475V-6161.398H-1699.22Z"/>
</clipPath>
<clipPath id="clip_36">
<path transform="matrix(1,0,0,-1,1814.287,-6069.792)" d="M-1724.42-6168.549H-1719.865V-6161.398H-1724.42Z"/>
</clipPath>
<clipPath id="clip_37">
<path transform="matrix(1,0,0,-1,1814.287,-6069.792)" d="M-1664.819-6168.549H-1660.266V-6161.398H-1664.819Z"/>
</clipPath>
<clipPath id="clip_38">
<path transform="matrix(1,0,0,-1,1814.287,-6069.792)" d="M-1707.885-6168.677H-1700.5V-6161.289H-1707.885Z"/>
</clipPath>
<clipPath id="clip_39">
<path transform="matrix(1,0,0,-1,1814.287,-6069.792)" d="M-1681.696-6168.677H-1674.309V-6161.289H-1681.696Z"/>
</clipPath>
<clipPath id="clip_40">
<path transform="matrix(1,0,0,-1,1814.287,-6069.792)" d="M-1714.394-6168.677H-1709.043V-6161.289H-1714.394Z"/>
</clipPath>
<clipPath id="clip_41">
<path transform="matrix(1,0,0,-1,1814.287,-6069.792)" d="M-1691.461-6170.043H-1689.784V-6167.865H-1691.461Z"/>
</clipPath>
<clipPath id="clip_42">
<path transform="matrix(1,0,0,-1,1814.287,-6069.792)" d="M-1673.033-6168.549H-1665.929V-6161.398H-1673.033Z"/>
</clipPath>
</defs>
<g>
<g inkscape:groupmode="layer" inkscape:label="Layer 1">
<g clip-path="url(#clip_0)">
<path transform="matrix(1,0,0,-1,1814.287,-6069.792)" d="M-1619.5335-6145.645-1619.5248-6145.486-1619.56-6145.3127-1619.6005-6145.1667-1619.5957-6144.9958-1619.6635-6144.844-1619.6948-6144.683-1619.7023-6144.515-1619.814-6144.206-1619.8176-6144.05-1619.841-6143.8728-1619.8969-6143.7185-1619.965-6143.4235-1619.9876-6143.246-1620.0557-6143.095-1620.0874-6142.934-1620.1032-6142.7814-1620.1227-6142.616-1620.1995-6142.4816-1620.2308-6142.32-1620.2661-6142.146-1620.318-6142.004-1620.3255-6141.8356-1620.3692-6141.6779-1620.4285-6141.511-1620.4562-6141.362-1620.5158-6141.1955-1620.5474-6141.0339-1620.6226-6140.7145-1620.7026-6140.5666-1620.7395-6140.4338-1620.7593-6140.268-1620.9146-6139.8015-1620.9768-6139.6228-1621.064-6139.3068-1621.0925-6139.157-1621.1812-6139.025-1621.1972-6138.8728-1621.2688-6138.7097-1621.3809-6138.4919-1621.5231-6138.3088-1621.6859-6138.288-1621.8579-6138.3757-1621.9804-6138.5-1622.0116-6138.7189-1621.995-6139.0148-1622.0053-6139.214-1622.0377-6139.38-1622.1397-6139.721-1622.191-6139.8669-1622.2387-6140.0246-1622.3504-6140.329-1622.3967-6140.447-1622.4878-6140.59-1622.5512-6140.738-1622.6304-6140.8776-1622.7343-6141.0246-1622.8167-6141.152-1622.9273-6141.3649-1622.987-6141.578-1622.9153-6141.7409-1622.796-6141.839-1622.6115-6141.8928-1622.4308-6141.7907-1622.2366-6141.593-1622.1578-6141.453-1622.0508-6141.3195-1621.9752-6141.167-1621.9237-6141.022-1621.8394-6140.855-1621.7723-6140.719-1621.7276-6140.5495-1621.6524-6140.398-1621.5956-6140.3166-1621.4994-6140.382-1621.4954-6140.5378-1621.4364-6140.704-1621.3452-6141.0329-1621.3207-6141.1696-1621.2739-6141.3395-1621.2058-6141.4909-1621.1864-6141.6555-1621.0993-6141.9719-1621.0671-6142.133-1621.0239-6142.291-1620.9404-6142.45-1620.8775-6142.7736-1620.8429-6142.947-1620.8175-6143.0837-1620.7621-6143.238-1620.7355-6143.427-1620.692-6143.5847-1620.6361-6143.74-1620.629-6143.9079-1620.5695-6144.0739-1620.55-6144.2395-1620.463-6144.5549-1620.4472-6144.7077-1620.3997-6144.8776-1620.3683-6145.039-1620.3358-6145.344-1620.2803-6145.4987-1620.2609-6145.663-1620.2047-6145.8176-1620.1983-6145.986-1620.1607-6146.1198-1620.0827-6146.307-1619.9844-6146.4758-1619.837-6146.488-1619.6723-6146.468-1619.5244-6146.388-1619.471-6146.2038V-6145.968L-1619.5054-6145.794-1619.5335-6145.645" fill-rule="evenodd"/>
</g>
</g>
<g inkscape:groupmode="layer" inkscape:label="Layer 1">
<g clip-path="url(#clip_1)">
<path transform="matrix(1,0,0,-1,1814.287,-6069.792)" d="M-1614.7634-6141.3308-1614.8109-6141.16-1614.8141-6141.005-1614.8585-6140.847-1614.8779-6140.6828-1614.9088-6140.521-1614.9314-6140.3439-1614.9785-6140.1745-1615.0704-6139.938-1615.1223-6139.7038-1615.181-6139.537-1615.2182-6139.4035-1615.2808-6139.224-1615.4135-6138.934-1615.4848-6138.7707-1615.5494-6138.632-1615.734-6138.343-1615.8228-6138.21-1615.9392-6138.0725-1616.0319-6137.928-1616.1298-6137.811-1616.2391-6137.6975-1616.3818-6137.6066-1616.5125-6137.5119-1616.6282-6137.4265-1616.9583-6137.3215-1617.1206-6137.3005-1617.2656-6137.249-1617.4094-6137.2497-1617.5774-6137.2565-1617.7612-6137.2556-1617.9102-6137.2839-1618.3532-6137.4318-1618.5282-6137.507-1618.685-6137.6027-1618.8329-6137.6828-1618.9497-6137.7805-1619.1646-6137.9968-1619.2837-6138.1345-1619.3744-6138.2775-1619.4485-6138.389-1619.5084-6138.55-1619.5722-6138.6979-1619.693-6139.0187-1619.7255-6139.1848-1619.7492-6139.3356-1619.7536-6139.507-1619.7468-6139.8186-1619.7005-6140.172-1619.6882-6140.3127-1619.5884-6140.625-1619.5535-6140.798-1619.4616-6140.9436-1619.4299-6141.1047-1619.3532-6141.24-1619.2572-6141.397-1619.1563-6141.5256-1619.0674-6141.658-1618.9458-6141.768-1618.8483-6141.885-1618.5949-6142.0895-1618.4193-6142.1589-1618.2918-6142.241-1618.1344-6142.2897-1617.9863-6142.353-1617.8322-6142.3889-1617.649-6142.39-1617.4962-6142.3747-1617.3128-6142.3757-1616.8544-6142.236-1616.679-6142.1618-1616.543-6142.0847-1616.4174-6141.971-1616.2522-6141.8605-1615.9309-6141.5095-1615.7393-6141.2087-1615.6754-6141.06-1615.6282-6140.9948-1615.5684-6141.07-1615.5767-6141.229-1615.5173-6141.3957-1615.5221-6141.5666-1615.4909-6141.7287-1615.4868-6141.884-1615.4916-6142.055-1615.4848-6142.223-1615.5169-6142.389-1615.5007-6142.542-1615.5217-6142.704-1615.5629-6142.8859-1615.5993-6143.04-1615.6624-6143.188-1615.6829-6143.3508-1615.8097-6143.647-1615.8984-6143.8029-1616.0158-6143.992-1616.175-6144.219-1616.4761-6144.5515-1616.6132-6144.6677-1616.8053-6144.825-1617.0192-6144.9499-1617.2422-6145.09-1617.3821-6145.246-1617.3872-6145.4177-1617.3068-6145.5656-1617.1762-6145.66-1616.9281-6145.657-1616.7185-6145.6125-1616.5497-6145.5129-1616.0269-6145.133-1615.9258-6145.0266-1615.8002-6144.9138-1615.6928-6144.7795-1615.4678-6144.508-1615.385-6144.38-1615.3217-6144.2316-1615.2341-6144.0769-1615.1303-6143.93-1615.0507-6143.699-1614.9884-6143.4987-1614.8743-6143.1535-1614.8388-6143-1614.83-6142.8405-1614.7682-6142.496-1614.7721-6142.341-1614.767-6142.169-1614.7586-6142.01-1614.7816-6141.833-1614.7444-6141.4958-1614.7634-6141.3308ZM-1615.9285-6140.005-1615.9606-6140.171-1615.9757-6140.3059-1616.0327-6140.478-1616.0772-6140.648-1616.1476-6140.772-1616.2387-6140.915-1616.358-6141.0524-1616.4677-6141.175-1616.5846-6141.272-1616.7134-6141.373-1616.9974-6141.5305-1617.228-6141.594-1617.4657-6141.6335-1617.6369-6141.6286-1617.8064-6141.5837-1617.9359-6141.5417-1618.0758-6141.462-1618.3527-6141.2639-1618.4296-6141.1286-1618.5425-6141.003-1618.6039-6140.876-1618.8008-6140.5905-1618.8322-6140.4289-1618.8483-6140.2766-1618.9002-6140.134-1618.9541-6139.4685-1618.949-6139.2976-1618.8856-6139.149-1618.865-6138.9865-1618.8012-6138.838-1618.6978-6138.6916-1618.6193-6138.552-1618.5208-6138.433-1618.4074-6138.323-1618.2695-6138.2067-1618.1463-6138.1335-1617.9462-6138.052-1617.691-6137.981-1617.5418-6137.9538-1617.3793-6137.9738-1617.2078-6137.9787-1617.0505-6138.027-1616.9265-6138.097-1616.799-6138.179-1616.6615-6138.2985-1616.5791-6138.4069-1616.463-6138.5446-1616.362-6138.673-1616.2642-6138.79-1616.2241-6138.936-1616.1192-6139.0769-1616.0636-6139.2316-1615.9959-6139.383-1615.9551-6139.529-1615.9004-6139.7746-1615.9285-6140.005" fill-rule="evenodd"/>
</g>
</g>
<g inkscape:groupmode="layer" inkscape:label="Layer 1">
<g clip-path="url(#clip_2)">
<path transform="matrix(1,0,0,-1,1814.287,-6069.792)" d="M-1609.2448-6140.9558-1609.255-6140.775-1609.3078-6140.633-1609.3152-6140.465-1609.4583-6139.9948-1609.5018-6139.8366-1609.5581-6139.682-1609.7704-6139.244-1609.8596-6139.1115-1609.9757-6138.9738-1610.0827-6138.872-1610.1956-6138.7468-1610.3057-6138.633-1610.442-6138.5666-1610.5719-6138.4719-1610.8845-6138.3356-1611.0144-6138.293-1611.1677-6138.257-1611.5112-6138.247-1612.0132-6138.321-1612.132-6138.366-1612.3174-6138.405-1612.4652-6138.485-1612.5833-6138.5305-1612.7465-6138.602-1612.8947-6138.6828-1613.0115-6138.78-1613.1519-6138.7927-1613.2343-6138.6848-1613.2346-6138.5407-1613.2382-6138.385-1613.233-6138.2136-1613.2599-6137.881-1613.3162-6137.5827-1613.355-6137.2536-1613.3312-6137.1027-1613.1729-6136.9675-1613.0202-6136.951-1612.5532-6136.7956-1612.3915-6136.764-1612.2338-6136.7209-1611.9467-6136.576-1611.8234-6136.5026-1611.6566-6136.4436-1611.4193-6136.26-1611.266-6136.153-1611.18-6136.037-1611.0853-6135.9064-1610.9904-6135.6838-1610.9899-6135.448-1611.098-6135.295-1611.2307-6135.24-1611.3745-6135.2409-1611.5659-6135.3986-1611.7597-6135.5959-1611.865-6135.6906-1612.006-6135.7946-1612.1535-6135.8747-1612.4926-6136.02-1612.6193-6136.082-1612.7861-6136.1418-1612.9497-6136.213-1613.0988-6136.2409-1613.42-6136.3557-1613.654-6136.407-1613.882-6136.4836-1614.0512-6136.5827-1614.145-6136.713-1614.181-6136.8669-1614.1664-6137.111-1614.099-6137.354-1614.0828-6137.5065-1614.0337-6137.637-1614.0385-6137.808-1613.9953-6137.9665-1613.977-6138.3146-1613.9608-6138.4675-1613.9247-6138.9279-1613.9243-6139.072-1613.9207-6139.2277-1613.9215-6139.463-1613.8696-6139.6975-1613.7509-6139.795-1613.6058-6139.8469-1613.3938-6139.762-1613.174-6139.6096-1613.0575-6139.512-1612.9133-6139.4196-1612.7738-6139.355-1612.6261-6139.275-1612.3844-6139.156-1612.075-6139.044-1611.8535-6138.996-1611.5172-6138.981-1611.228-6139.032-1611.0556-6139.089-1610.94-6139.175-1610.7882-6139.2507-1610.682-6139.352-1610.5774-6139.493-1610.4832-6139.5979-1610.32-6139.9055-1610.2308-6140.038-1610.0474-6140.6545-1610.0248-6140.8317-1610.0208-6140.9875-1609.9891-6141.1486-1609.982-6141.317-1609.9627-6141.4816-1609.9828-6141.6437-1609.9994-6141.962-1610.1049-6142.292-1610.1528-6142.4489-1610.207-6142.5817-1610.2902-6142.7097-1610.3881-6142.828-1610.4824-6142.959-1610.6167-6143.0876-1610.8694-6143.2619-1611.0296-6143.3459-1611.5639-6143.493-1611.7937-6143.4655-1611.9601-6143.433-1612.1083-6143.369-1612.2719-6143.297-1612.3788-6143.1955-1612.5718-6142.922-1612.7295-6142.6389-1612.8174-6142.506-1612.9216-6142.2736-1613.0695-6142.1179-1613.2128-6142.1188-1613.4019-6142.1447-1613.5305-6142.245-1613.5349-6142.469-1613.498-6142.6945-1613.4667-6142.856-1613.3954-6143.019-1613.3035-6143.1638-1613.2232-6143.3117-1613.1221-6143.44-1613.042-6143.588-1612.7825-6143.8176-1612.6674-6143.903-1612.5238-6143.994-1612.2426-6144.113-1612.086-6144.1608-1611.7291-6144.219-1611.4213-6144.199-1611.2719-6144.171-1610.8049-6144.0158-1610.5053-6143.868-1610.3703-6143.791-1610.2225-6143.711-1609.8695-6143.378-1609.7835-6143.263-1609.6797-6143.1169-1609.5827-6142.9978-1609.503-6142.8586-1609.4428-6142.6975-1609.3794-6142.5495-1609.3402-6142.4079-1609.3196-6142.245-1609.263-6142.0729-1609.2182-6141.7595-1609.2103-6141.6-1609.2055-6141.4289-1609.1972-6141.269-1609.2443-6141.099-1609.2448-6140.9558" fill-rule="evenodd"/>
</g>
</g>
<g inkscape:groupmode="layer" inkscape:label="Layer 1">
<g clip-path="url(#clip_3)">
<path transform="matrix(1,0,0,-1,1814.287,-6069.792)" d="M-1604.4627-6138.482-1604.5101-6138.3117-1604.5133-6138.1564-1604.5578-6137.998-1604.5767-6137.834-1604.6084-6137.6726-1604.6309-6137.4958-1604.6777-6137.3259-1604.7697-6137.089-1604.821-6136.855-1604.8805-6136.688-1604.9174-6136.5549-1604.9796-6136.375-1605.1127-6136.085-1605.1836-6135.922-1605.2482-6135.7829-1605.4332-6135.494-1605.5219-6135.3615-1605.6384-6135.2238-1605.7307-6135.079-1605.829-6134.9626-1605.9384-6134.849-1606.0809-6134.758-1606.2122-6134.663-1606.3274-6134.577-1606.6574-6134.4729-1606.8198-6134.4519-1606.9649-6134.4006-1607.109-6134.401-1607.2766-6134.408-1607.4605-6134.4069-1607.6094-6134.4348-1608.0523-6134.583-1608.2274-6134.658-1608.3847-6134.754-1608.5321-6134.8337-1608.6493-6134.9318-1608.8637-6135.148-1608.9833-6135.2858-1609.074-6135.428-1609.1473-6135.5407-1609.2075-6135.701-1609.2713-6135.8498-1609.3917-6136.171-1609.4246-6136.3366-1609.448-6136.487-1609.4533-6136.658-1609.4456-6136.9699-1609.3997-6137.3239-1609.3878-6137.464-1609.2879-6137.7766-1609.253-6137.9499-1609.1608-6138.0949-1609.1295-6138.256-1609.0523-6138.391-1608.9567-6138.5485-1608.8557-6138.677-1608.7666-6138.8098-1608.6447-6138.92-1608.5471-6139.0358-1608.2943-6139.241-1608.118-6139.31-1607.9913-6139.3928-1607.834-6139.441-1607.685-6139.5046-1607.5317-6139.5407-1607.3479-6139.5417-1607.195-6139.5256-1607.0119-6139.5266-1606.5536-6139.387-1606.378-6139.3127-1606.2426-6139.236-1606.1166-6139.123-1605.9514-6139.0119-1605.6298-6138.6618-1605.4384-6138.3596-1605.3746-6138.2116-1605.3274-6138.1457-1605.2676-6138.2209-1605.2755-6138.38-1605.2166-6138.547-1605.2212-6138.7185-1605.19-6138.88-1605.1864-6139.035-1605.1907-6139.2067-1605.1836-6139.3747-1605.2166-6139.541-1605.2002-6139.6936-1605.2212-6139.8557-1605.2617-6140.037-1605.2981-6140.1916-1605.3615-6140.34-1605.3821-6140.502-1605.5089-6140.7985-1605.5968-6140.954-1605.7149-6141.1437-1605.8742-6141.3708-1606.1752-6141.7028-1606.3128-6141.819-1606.5044-6141.976-1606.7188-6142.1018-1606.941-6142.2409-1607.0813-6142.3977-1607.0864-6142.569-1607.006-6142.717-1606.8753-6142.8117-1606.6273-6142.8088-1606.4177-6142.763-1606.2485-6142.664-1605.7265-6142.284-1605.6245-6142.178-1605.499-6142.065-1605.3925-6141.9309-1605.1666-6141.6589-1605.0846-6141.5319-1605.0208-6141.383-1604.9328-6141.228-1604.8294-6141.0817-1604.7498-6140.85-1604.6873-6140.65-1604.5739-6140.304-1604.5379-6140.151-1604.529-6139.9919-1604.4677-6139.6477-1604.4713-6139.4919-1604.4661-6139.3205-1604.4583-6139.161-1604.4808-6138.9846-1604.4436-6138.6467-1604.4627-6138.482ZM-1605.6273-6137.1564-1605.6598-6137.322-1605.6746-6137.457-1605.7319-6137.63-1605.7767-6137.7995-1605.8468-6137.9235-1605.9379-6138.066-1606.0568-6138.204-1606.1669-6138.3259-1606.2838-6138.424-1606.4129-6138.5246-1606.6967-6138.6818-1606.9268-6138.7458-1607.1653-6138.7849-1607.336-6138.78-1607.5056-6138.735-1607.6347-6138.693-1607.7747-6138.6135-1608.0519-6138.415-1608.1284-6138.2795-1608.2421-6138.1545-1608.3031-6138.0275-1608.4996-6137.7419-1608.5309-6137.5808-1608.5471-6137.4274-1608.5999-6137.2858-1608.653-6136.6198-1608.6477-6136.448-1608.5847-6136.3-1608.5637-6136.1379-1608.5009-6135.989-1608.397-6135.843-1608.3181-6135.7038-1608.2199-6135.5847-1608.1066-6135.4748-1607.9688-6135.358-1607.8455-6135.284-1607.6454-6135.203-1607.3899-6135.133-1607.2409-6135.1047-1607.0785-6135.125-1606.907-6135.1306-1606.7498-6135.1779-1606.6253-6135.2487-1606.4985-6135.331-1606.3602-6135.4499-1606.2786-6135.5578-1606.1622-6135.696-1606.0612-6135.824-1605.9633-6135.9416-1605.9229-6136.0876-1605.8184-6136.2287-1605.7628-6136.383-1605.6951-6136.534-1605.6543-6136.6799-1605.5996-6136.926-1605.6273-6137.1564" fill-rule="evenodd"/>
</g>
</g>
<g inkscape:groupmode="layer" inkscape:label="Layer 1">
<g clip-path="url(#clip_4)">
<path transform="matrix(1,0,0,-1,1814.287,-6069.792)" d="M-1780.0305-6139.288-1779.9469-6139.5905-1779.9354-6139.8786-1780.099-6140.712-1780.2567-6141.321-1780.3554-6141.5197-1780.4861-6141.9157-1780.8589-6142.55-1781.1889-6142.967-1781.3739-6143.1037-1781.5357-6143.199-1781.7249-6143.3205-1781.9983-6143.4475-1782.4124-6143.562-1782.7642-6143.591-1782.957-6143.5749-1783.1452-6143.576-1783.3508-6143.513-1783.5774-6143.438-1783.7763-6143.3395-1784.2553-6142.9069-1784.3449-6142.708-1784.477-6142.539-1784.6681-6142.1477-1784.6776-6142.183-1784.7014-6142.344-1784.8643-6142.749-1784.9791-6142.9528-1785.2223-6143.311-1785.3507-6143.4665-1785.4474-6143.6125-1785.6272-6143.7658-1785.7738-6143.8576-1786.4663-6144.203-1786.6585-6144.3767-1786.8344-6144.545-1786.935-6144.676-1787.2186-6144.891-1787.7017-6145.1276-1787.988-6145.2067-1788.2835-6145.254-1788.5125-6145.232-1788.7296-6145.189-1789.1393-6145.011-1789.3302-6144.8757-1789.4423-6144.718-1789.4907-6144.5427-1789.5145-6144.3957-1789.495-6144.2185-1789.4-6144.0036-1789.2355-6143.8557-1789.0026-6143.8937-1788.8109-6144.029-1788.6599-6144.1418-1788.4971-6144.234-1788.177-6144.2136-1787.902-6144.155-1787.717-6144.0178-1787.6264-6143.7878-1787.6013-6143.506-1787.6227-6143.306-1787.5641-6143.0847-1787.4345-6142.8088-1787.4845-6142.566-1787.5899-6142.372-1787.6671-6142.1535-1787.8109-6142.0046-1787.9432-6141.836-1788.1076-6141.6755-1788.4202-6141.351-1788.9566-6140.899-1789.0842-6140.746-1789.3013-6140.5837-1789.4332-6140.4147-1789.5913-6140.3386-1789.7573-6140.4187-1789.8932-6140.61-1790.1016-6141.405-1790.1166-6141.5979-1790.1555-6141.831-1790.1983-6142.0485-1790.2612-6142.254-1790.281-6142.4309-1790.346-6142.596-1790.3436-6142.757-1790.3753-6142.9538-1790.386-6143.162-1790.4288-6143.3796-1790.5397-6143.5988-1790.6023-6143.805-1790.6332-6144.0026-1790.7125-6144.213-1790.8274-6144.4157-1790.911-6144.61-1790.9985-6144.7888-1791.1182-6144.9758-1791.5175-6145.5148-1791.9359-6145.9216-1792.1577-6146.051-1792.3308-6146.1677-1792.5247-6146.2727-1792.7022-6146.373-1793.4096-6146.603-1793.7444-6146.6955-1793.9397-6146.7326-1794.1235-6146.749-1794.3953-6146.756-1794.568-6146.7526-1794.7653-6146.721-1795.0232-6146.6555-1795.4028-6146.5207-1795.602-6146.421-1795.789-6146.302-1795.9927-6146.1867-1796.1321-6146.0539-1796.2803-6145.889-1796.3765-6145.7277-1796.5128-6145.5427-1796.6182-6145.3488-1796.7351-6145.175-1796.8444-6144.966-1796.9292-6144.783-1797.0529-6144.4577-1797.1325-6144.171-1797.1578-6143.9558-1797.2034-6143.728-1797.2129-6143.508-1797.2109-6143.2678-1797.2152-6143.0637-1797.1891-6142.8508-1797.1946-6142.6467-1797.1356-6142.4245-1796.998-6141.9929-1796.9467-6141.807-1796.8678-6141.5969-1796.7434-6141.4255-1796.6444-6141.226-1796.3805-6140.8796-1795.9487-6140.5197-1795.705-6140.349-1794.858-6140.064-1794.6469-6140.023-1794.2024-6140.0197-1793.763-6140.121-1793.544-6140.2316-1793.3973-6140.328-1793.21-6140.448-1793.0618-6140.613-1792.9247-6140.797-1792.8562-6140.984-1792.7426-6141.2097-1792.6906-6141.5207-1792.6498-6141.8527-1792.6969-6142.054-1792.6878-6142.2746-1792.7666-6142.4846-1792.8502-6142.6789-1792.9287-6142.889-1793.017-6143.0676-1793.1613-6143.2277-1793.3328-6143.412-1793.6342-6143.6838-1794.0177-6143.9099-1794.2044-6143.9787-1794.4179-6144.0725-1794.8247-6144.15-1795.0407-6144.1755-1795.4016-6144.1726-1795.6104-6144.161-1795.9055-6144.209-1795.9096-6144.3815-1795.8088-6144.5598-1795.7466-6144.782-1795.6104-6144.967-1795.4657-6145.1159-1795.3295-6145.301-1795.1896-6145.433-1794.9865-6145.5485-1794.7518-6145.655-1794.593-6145.731-1794.1604-6145.7487-1793.6172-6145.667-1793.1168-6145.494-1792.9188-6145.4055-1792.5598-6145.1516-1792.3753-6145.0148-1791.9295-6144.583-1791.8257-6144.4-1791.7177-6144.233-1791.5028-6143.831-1791.3567-6143.4309-1791.184-6142.818-1791.132-6142.632-1791.0698-6142.473-1791.0667-6142.254-1791.0076-6142.032-1790.9922-6141.84-1790.9387-6141.6018-1790.9232-6141.409-1790.8488-6141.1828-1790.8171-6140.986-1790.7426-6140.7595-1790.6439-6140.5607-1790.6008-6140.343-1790.4974-6140.16-1790.43-6139.9709-1790.306-6139.799-1790.2332-6139.505-1790.1852-6139.183-1790.2105-6138.967-1790.2039-6138.742-1790.121-6138.5485-1790.0255-6138.3337-1789.8659-6138.1696-1789.6674-6138.08-1789.476-6138.0275-1789.2407-6138.013-1789.0573-6138.117-1788.9341-6138.2546-1788.8334-6138.432-1788.8034-6138.664-1788.8106-6138.8889-1788.873-6139.094-1788.9008-6139.4274-1788.7896-6139.705-1788.5292-6140.0275-1788.236-6140.2209-1787.9948-6140.4108-1787.7024-6140.724-1787.5225-6140.88-1787.2666-6141.1857-1787.1022-6141.346-1786.9743-6141.4997-1786.8534-6141.6887-1786.6937-6141.8327-1786.6085-6142.015-1786.5004-6142.3449-1786.353-6142.63-1786.3435-6142.85-1786.2274-6143.023-1786.0317-6142.987-1785.874-6142.8747-1785.7346-6142.6989-1785.6351-6142.4997-1785.5789-6142.3298-1785.4843-6142.115-1785.4418-6141.898-1785.3511-6141.6677-1785.2885-6141.4616-1785.218-6141.2189-1785.0963-6140.673-1785.136-6140.528-1785.1815-6140.3015-1785.239-6140.094-1785.2283-6139.8859-1785.2968-6139.699-1785.2948-6139.4587-1785.3475-6139.267-1785.3729-6139.052-1785.3673-6138.639-1785.4917-6138.005-1785.506-6137.5808-1785.5266-6137.3806-1785.7045-6137.173-1785.9465-6137.1027-1786.3158-6137.068-1786.6073-6136.9426-1786.6212-6136.707-1786.5784-6136.4895-1786.3169-6136.3825-1786.0895-6136.337-1785.7572-6136.1765-1785.7346-6135.9479-1785.7952-6135.296-1785.8574-6134.885-1786.0297-6134.0759-1786.038-6133.7355-1785.981-6133.4455-1785.8031-6133.3449-1785.5686-6133.2629-1785.3558-6133.29-1785.1332-6133.536-1785.0492-6133.839-1785.0088-6134.0505-1784.9513-6134.257-1784.9462-6134.462-1784.9093-6134.6569-1784.8563-6134.848-1784.8313-6135.0637-1784.7739-6135.2707-1784.7343-6135.722-1784.586-6135.8869-1784.3646-6135.9455-1784.1503-6135.852-1783.4918-6135.7556-1783.1539-6135.8-1782.8988-6135.9177-1782.8096-6136.115-1782.8565-6136.317-1783.0775-6136.4465-1783.3969-6136.534-1783.6364-6136.5329-1783.8274-6136.585-1784.0707-6136.6359-1784.278-6136.6926-1784.4859-6136.8698-1784.54-6137.1076-1784.4989-6137.319-1784.4688-6137.551-1784.4483-6137.7507-1784.4585-6137.959-1784.4288-6138.191-1784.4197-6138.411-1784.3825-6138.6066-1784.3255-6138.8137-1784.3115-6139.0495-1784.302-6139.2697-1784.2335-6139.456-1784.2039-6139.6877-1784.1986-6139.892-1784.1182-6140.0588-1784.0841-6140.3059-1784.0421-6140.517-1784.0374-6140.7219-1783.9641-6140.924-1783.9229-6141.1354-1783.8032-6141.445-1783.7039-6141.7429-1783.5827-6141.932-1783.4934-6142.1306-1783.3453-6142.295-1783.1741-6142.419-1782.9911-6142.522-1782.7732-6142.565-1782.5446-6142.5876-1782.2827-6142.4807-1781.9782-6142.345-1781.8046-6142.2287-1781.6668-6142.1047-1781.4104-6141.794-1781.2753-6141.6027-1781.2119-6141.3967-1781.1243-6141.2185-1781.0407-6141.0236-1780.9937-6140.822-1780.8989-6140.6076-1780.8359-6140.4016-1780.7935-6140.184-1780.7345-6139.9626-1780.7123-6139.7336-1780.6351-6139.455-1780.4358-6139.2458-1780.2203-6139.22-1780.0305-6139.288ZM-1796.1083-6142.483-1796.1511-6142.7009-1796.1456-6142.905-1796.0755-6143.159-1795.8754-6143.3269-1795.6464-6143.349-1795.4262-6143.34-1795.0744-6143.311-1794.7677-6143.2429-1794.5966-6143.1789-1794.3275-6143.036-1794.0567-6142.841-1793.9207-6142.6496-1793.7971-6142.4777-1793.675-6142.05-1793.7785-6141.4274-1793.9155-6141.2429-1794.0752-6141.098-1794.2697-6141.015-1794.4397-6140.9597-1794.6912-6140.9777-1794.9893-6141.077-1795.2898-6141.229-1795.4955-6141.354-1795.6127-6141.489-1795.7249-6141.6408-1795.929-6141.9538-1796.0343-6142.257-1796.1083-6142.483" fill-rule="evenodd"/>
</g>
</g>
<g inkscape:groupmode="layer" inkscape:label="Layer 1">
<g clip-path="url(#clip_5)">
<path transform="matrix(1,0,0,-1,1814.287,-6069.792)" d="M-1777.4291-6141.138-1777.2971-6141.428-1777.2619-6141.743-1777.313-6141.929-1777.4212-6142.0959-1777.5448-6142.267-1777.8585-6142.371-1778.118-6142.4255-1778.2968-6142.338-1778.5114-6142.2429-1778.6624-6142.1306-1778.7776-6141.8376-1778.7935-6141.533-1778.7301-6141.3278-1778.6502-6141.1848-1778.553-6141.038-1778.2437-6140.918-1777.9644-6140.8757-1777.7623-6140.9226-1777.5888-6140.994-1777.4291-6141.138" fill-rule="evenodd"/>
</g>
</g>
<g inkscape:groupmode="layer" inkscape:label="Layer 1">
<g clip-path="url(#clip_6)">
<path transform="matrix(1,0,0,-1,1814.287,-6069.792)" d="M-1714.5827-6099.1608C-1714.5827-6097.199-1714.7511-6095.43-1714.7511-6095.43-1714.065-6096.477-1713.8002-6097.9455-1713.8002-6099.269-1713.8002-6100.593-1713.8969-6101.5319-1714.1972-6102.687-1714.4983-6103.842-1714.065-6104.444-1714.2214-6106.5017-1714.3779-6108.5598-1713.5479-6108.897-1713.5479-6108.897H-1711.8023C-1711.8023-6108.68-1712.2719-6108.271-1712.5848-6108.042-1712.8978-6107.813-1712.994-6107.043-1712.994-6105.936-1712.994-6104.829-1712.368-6103.3127-1711.899-6101.868-1711.899-6101.868-1711.638-6102.0979-1711.2687-6102.0979-1711.1304-6102.0979-1710.9763-6102.0656-1710.8159-6101.9768-1710.7557-6102.4826-1710.4185-6103.794-1709.9855-6104.7326-1709.5525-6105.6716-1709.0347-6107.296-1708.9503-6108.198-1708.9503-6108.198-1708.4812-6108.391-1707.9393-6109.0895-1707.9393-6109.0895-1707.7864-6109.124-1707.5653-6109.124-1707.2689-6109.124-1706.8506-6109.061-1706.5194-6108.764-1706.5075-6108.367-1707.1453-6108.0666-1707.5424-6107.561-1707.9393-6107.055-1708.3727-6106.4416-1708.5415-6104.576-1708.7098-6102.711-1708.2166-6102.9396-1708.2166-6101.2868-1708.2166-6101.2868-1707.7376-6101.5109-1707.0142-6101.6345-1707.0946-6101.351-1707.1426-6101.054-1707.1426-6100.748-1707.124-6100.2858-1707.0471-6099.8547-1706.9092-6099.4367-1707.37-6099.0437-1708.0748-6098.3757-1708.4207-6097.708-1708.4503-6097.651-1708.4544-6097.584-1708.4329-6097.524-1708.4107-6097.4636-1708.3644-6097.415-1708.3049-6097.39-1708.28-6097.38-1708.2265-6097.3625-1708.1477-6097.3625-1708.0676-6097.3625-1707.9623-6097.3806-1707.8383-6097.4436-1707.7758-6097.216-1707.6647-6097.0588-1707.565-6096.9558-1707.3577-6096.742-1707.0567-6096.6198-1706.7398-6096.6198-1706.2389-6096.6198-1705.8673-6096.9064-1705.8566-6097.3015-1705.8455-6097.69-1706.0678-6098.003-1706.3206-6098.2316-1706.3114-6098.237-1706.3027-6098.2429-1706.2936-6098.249-1705.2612-6096.8796-1703.5128-6096.3879-1702.2914-6096.3879H-1698.8257C-1697.8-6096.3879-1696.9122-6096.346-1696.0545-6096.3068-1695.2649-6096.2697-1694.5193-6096.235-1693.727-6096.235-1692.7069-6096.235-1692.2192-6096.4396-1691.8587-6096.634-1691.5294-6096.2829-1691.1159-6095.824-1690.7422-6095.358-1690.1769-6095.382-1689.0336-6095.8156-1688.2273-6095.8156-1687.4207-6095.8156-1686.2778-6095.454-1686.2057-6094.8889-1686.1332-6094.323-1687.3851-6093.4689-1687.7337-6092.3977-1688.0827-6091.3269-1688.5641-6091.1057-1688.5641-6091.1057-1688.5641-6091.1057-1687.353-6090.4958-1686.9917-6089.5495-1686.9917-6089.5495-1687.8181-6090.119-1688.8771-6090.472-1688.8771-6090.472-1688.1795-6089.9025-1687.7622-6089.1965L-1689.1984-6089.7985C-1689.1984-6089.7985-1689.4309-6089.5895-1690.0165-6089.5895-1690.5022-6089.5895-1690.7783-6089.9645-1691.1875-6089.9645-1691.2719-6089.9645-1691.3623-6089.9489-1691.4609-6089.91-1691.627-6089.8459-1691.8135-6089.8117-1691.9973-6089.8117-1692.4529-6089.8117-1692.8864-6090.0217-1692.9208-6090.4958-1692.9208-6090.4958-1692.4998-6091.3024-1691.621-6091.363-1691.6122-6091.363-1691.6388-6091.3659-1691.6928-6091.3659-1691.9244-6091.3659-1692.6577-6091.3024-1693.1854-6090.6286-1693.1862-6090.628-1693.187-6090.628-1693.1878-6090.628-1693.2774-6090.628-1693.727-6091.3269-1695.171-6091.3269-1696.6275-6091.3269-1696.9043-6090.857-1697.5901-6090.857-1698.2648-6090.857-1698.741-6091.1945-1699.443-6091.1945-1699.455-6091.1945-1699.4675-6091.1945-1699.4794-6091.1945-1700.2012-6091.182-1700.9235-6090.857-1702.9332-6090.857-1704.943-6090.857-1707.1453-6091.146-1708.493-6091.146H-1712.368C-1713.8605-6091.146-1715.2324-6092.4338-1715.2324-6094.8527V-6099.4616C-1715.2324-6101.2907-1716.2914-6101.375-1716.3635-6101.989-1716.3433-6101.9895-1716.3239-6101.9899-1716.3036-6101.9899-1715.2887-6101.9899-1714.5827-6101.0847-1714.5827-6099.1608" fill="#ffffff"/>
</g>
</g>
<g inkscape:groupmode="layer" inkscape:label="Layer 1">
<g clip-path="url(#clip_7)">
<path transform="matrix(1,0,0,-1,1814.287,-6069.792)" d="M-1707.0001-6097.893C-1707.2037-6097.535-1707.027-6097.266-1706.8869-6097.2238-1706.8757-6097.2199-1706.8646-6097.218-1706.8539-6097.218-1706.6531-6097.218-1706.5299-6097.7888-1707.0001-6097.893ZM-1685.4353-6099.305C-1686.4705-6099.305-1686.013-6099.859-1687.0842-6099.859-1688.3959-6098.463-1690.5621-6097.3195-1691.2479-6097.163-1691.9341-6097.007-1692.0783-6096.4655-1693.7272-6096.4655-1695.3756-6096.4655-1696.8522-6096.617-1698.8255-6096.617H-1702.2913C-1703.4837-6096.617-1705.2609-6097.1145-1706.2284-6098.553-1706.4249-6098.4465-1706.5774-6098.3405-1706.699-6098.2375-1706.4423-6098.06-1706.0747-6097.733-1706.086-6097.3078-1706.0941-6097.0246-1706.3999-6096.85-1706.7398-6096.85-1707.18-6096.85-1707.6773-6097.1428-1707.6566-6097.873-1707.8853-6097.6325-1708.0579-6097.5925-1708.1475-6097.5925-1708.1926-6097.5925-1708.2164-6097.602-1708.2164-6097.602-1707.8587-6098.293-1707.0838-6098.995-1706.6397-6099.3625-1706.7909-6099.7727-1706.8916-6100.232-1706.9126-6100.7575-1706.9126-6102.2468-1705.6987-6103.515-1705.148-6104.0139-1704.9773-6104.1687-1704.8858-6104.3859-1704.8687-6104.6159-1704.7827-6105.7995-1704.3295-6106.859-1704.3295-6107.741-1704.3295-6108.523-1704.1825-6108.6008-1704.0122-6108.6008-1703.9706-6108.6008-1703.927-6108.5959-1703.8842-6108.5959-1703.6675-6108.5959-1703.4869-6109.0895-1703.162-6109.0895-1702.8372-6109.0895-1702.6925-6108.8728-1703.0899-6108.1506-1703.4869-6107.4289-1703.391-6107.5368-1703.391-6106.851-1703.391-6106.1647-1703.1137-6106.273-1703.1137-6105.575-1703.1137-6105.1447-1702.958-6105.0617-1702.8388-6105.0617-1702.765-6105.0617-1702.7044-6105.0939-1702.7044-6105.0939-1702.7044-6105.6955-1702.3197-6106.189-1702.1874-6106.7668-1702.055-6107.344-1701.8864-6107.621-1701.79-6108.018-1701.6939-6108.4157-1701.3809-6108.7766-1700.8511-6108.7766-1700.3218-6108.7766-1700.081-6108.728-1700.081-6108.439-1700.081-6108.1506-1701.0559-6108.235-1701.0801-6107.549-1701.1039-6106.863-1701.2002-6106.598-1701.2002-6106.0808-1701.2002-6105.563-1700.7671-6105.25-1700.2378-6105.25H-1699.022C-1697.7824-6105.25-1695.7365-6104.7326-1694.9545-6104.7326-1694.1725-6104.7326-1694.1-6105.346-1694.1-6105.732-1694.1-6106.1169-1694.3289-6106.598-1694.3289-6107.019-1694.3289-6107.4406-1694.2205-6107.7058-1693.932-6108.1027-1693.6428-6108.4997-1693.4867-6108.824-1693.4867-6108.824H-1692.4392C-1692.4392-6108.078-1693.077-6108.379-1693.077-6107.5847-1693.077-6106.851-1692.5117-6105.948-1692.2831-6105.9-1691.8018-6106.333-1691.4409-6107.416-1691.284-6107.8498-1691.1279-6108.283-1690.7305-6108.6076-1690.7305-6108.6076H-1689.2984C-1689.7916-6107.549-1690.7548-6107.982-1690.7548-6105.1779-1690.4797-6105.098-1690.232-6105.0676-1689.9953-6105.0676-1689.1946-6105.0676-1688.519-6105.4187-1687.3488-6105.4187-1685.8322-6105.4187-1683.895-6103.83-1683.895-6103.493-1683.895-6103.1926-1685.1647-6103.5598-1685.688-6102.554-1686.2114-6101.5495-1686.5426-6101.4416-1686.5426-6101.4416-1687.0379-6101.6555-1687.4447-6101.709-1687.7288-6101.709-1688.0215-6101.709-1688.1856-6101.652-1688.1856-6101.652-1688.1856-6101.652-1685.4595-6101.435-1685.4353-6099.305" fill="#ffffff"/>
</g>
</g>
<g inkscape:groupmode="layer" inkscape:label="Layer 1">
<g clip-path="url(#clip_8)">
<path transform="matrix(1,0,0,-1,1814.287,-6069.792)" d="M-1695.2774-6106.6765C-1695.3095-6106.351-1695.4019-6105.972-1695.4038-6105.6057-1695.4058-6105.238-1695.6403-6105.0578-1695.6403-6105.0578H-1695.6649-1696.7175C-1696.7175-6105.3708-1696.3626-6106.46-1696.3324-6107.055-1696.3023-6107.651-1695.8294-6108.1086-1695.4038-6108.548-1694.9788-6108.987-1694.72-6109.059-1694.5033-6109.059H-1693.8715C-1693.7026-6109.059-1694.1903-6108.1687-1694.5758-6107.8137-1694.9605-6107.4587-1695.2453-6107.001-1695.2774-6106.6765" fill="#ffffff"/>
</g>
</g>
<g inkscape:groupmode="layer" inkscape:label="Layer 1">
<g clip-path="url(#clip_9)">
<path transform="matrix(1,0,0,-1,1814.287,-6069.792)" d="M-1699.8756-6105.529C-1699.6304-6106.177-1699.6482-6107.175-1699.5198-6107.659-1699.3911-6108.1437-1699.2687-6108.2839-1698.9125-6108.511-1698.5567-6108.739-1698.014-6109.089-1697.5529-6109.089-1697.092-6109.089-1696.9867-6108.33-1697.6524-6107.98-1698.3171-6107.63-1698.4577-6107.268-1698.4577-6106.772-1698.4577-6106.2766-1698.2653-6105.529-1698.2653-6105.529H-1699.8756" fill="#ffffff"/>
</g>
</g>
<g inkscape:groupmode="layer" inkscape:label="Layer 1">
<g clip-path="url(#clip_10)">
<path transform="matrix(1,0,0,-1,1814.287,-6069.792)" d="M-1624.5175-6159.597C-1624.5175-6150.559-1624.5175-6132.483-1624.5175-6123.445H-1591.6535L-1601.7966-6141.113-1591.7359-6159.597H-1624.5175ZM-1620.1849-6182.607C-1620.1849-6186.03-1622.9597-6188.8049-1626.383-6188.8049H-1774.02C-1777.4434-6188.8049-1780.2182-6186.03-1780.2182-6182.607V-6162.8176H-1775.8615V-6176.8688C-1775.8615-6180.888-1772.6026-6184.1477-1768.5827-6184.1477H-1631.7963C-1627.7767-6184.1477-1624.5175-6180.888-1624.5175-6176.8688V-6162.8176H-1620.1849V-6182.607ZM-1808.6431-6159.597C-1806.1279-6154.976-1801.0975-6145.734-1798.5823-6141.113L-1808.726-6123.445H-1775.8615V-6159.597H-1808.6431ZM-1697.6524-6107.98C-1696.9868-6108.33-1697.0918-6109.0895-1697.5529-6109.0895-1698.0142-6109.0895-1698.5568-6108.739-1698.9126-6108.511-1699.2687-6108.2839-1699.3912-6108.1437-1699.5195-6107.659-1699.6483-6107.175-1699.6304-6106.177-1699.8757-6105.529H-1698.2648C-1698.2648-6105.529-1698.4578-6106.276-1698.4578-6106.772-1698.4578-6107.268-1698.3171-6107.63-1697.6524-6107.98ZM-1693.8717-6109.059C-1694.0296-6109.059-1694.3453-6109.059-1694.5032-6109.059-1694.7199-6109.059-1694.9786-6108.987-1695.404-6108.548-1695.8292-6108.1086-1696.3023-6107.651-1696.3323-6107.055-1696.3628-6106.46-1696.7174-6105.3708-1696.7174-6105.0578H-1695.6648-1695.6403C-1695.6403-6105.0578-1695.4061-6105.238-1695.404-6105.6057-1695.4021-6105.972-1695.3095-6106.351-1695.2774-6106.6765-1695.2453-6107.001-1694.9608-6107.4587-1694.5757-6107.8137-1694.1902-6108.1687-1693.7029-6109.059-1693.8717-6109.059ZM-1687.729-6101.709C-1687.4446-6101.709-1687.0381-6101.6555-1686.5429-6101.4416-1686.5429-6101.4416-1686.2117-6101.55-1685.688-6102.554-1685.1646-6103.5598-1683.8949-6103.1926-1683.8949-6103.493-1683.8949-6103.83-1685.8327-6105.4187-1687.3491-6105.4187-1688.519-6105.4187-1689.1945-6105.0676-1689.9951-6105.0676-1690.232-6105.0676-1690.4797-6105.098-1690.7546-6105.1779-1690.7546-6107.982-1689.7919-6107.549-1689.2987-6108.6076H-1690.7304C-1690.7304-6108.6076-1691.1278-6108.283-1691.2839-6107.8498-1691.4408-6107.416-1691.8018-6106.333-1692.283-6105.9-1692.5116-6105.948-1693.0774-6106.851-1693.0774-6107.5847-1693.0774-6108.379-1692.4391-6108.078-1692.4391-6108.824H-1693.4866C-1693.4866-6108.824-1693.6427-6108.4997-1693.9319-6108.1027-1694.2203-6107.7058-1694.3289-6107.4406-1694.3289-6107.019-1694.3289-6106.598-1694.1004-6106.1169-1694.1004-6105.732-1694.1004-6105.3469-1694.1724-6104.7326-1694.9544-6104.7326-1695.7369-6104.7326-1697.7827-6105.25-1699.0223-6105.25H-1700.2378C-1700.7671-6105.25-1701.2005-6105.563-1701.2005-6106.0808-1701.2005-6106.598-1701.1038-6106.863-1701.08-6107.549-1701.0559-6108.235-1700.0809-6108.1506-1700.0809-6108.439-1700.0809-6108.728-1700.3218-6108.7766-1700.8515-6108.7766-1701.3811-6108.7766-1701.6941-6108.4157-1701.79-6108.018-1701.8862-6107.621-1702.055-6107.344-1702.1873-6106.7668-1702.3197-6106.189-1702.7044-6105.6955-1702.7044-6105.0939-1702.7044-6105.0939-1702.765-6105.0617-1702.8386-6105.0617-1702.9579-6105.0617-1703.114-6105.1447-1703.114-6105.575-1703.114-6106.273-1703.3909-6106.1647-1703.3909-6106.851-1703.3909-6107.5368-1703.4868-6107.4289-1703.0899-6108.1506-1702.6925-6108.8728-1702.8372-6109.0895-1703.1619-6109.0895-1703.4868-6109.0895-1703.6674-6108.5959-1703.8842-6108.5959-1703.9269-6108.5959-1703.9705-6108.6008-1704.0121-6108.6008-1704.1825-6108.6008-1704.3294-6108.523-1704.3294-6107.741-1704.3294-6106.859-1704.7831-6105.7995-1704.8687-6104.6159-1704.8858-6104.3859-1704.9772-6104.1687-1705.148-6104.0139-1705.6986-6103.515-1706.9129-6102.2468-1706.9129-6100.7575-1706.8915-6100.232-1706.7908-6099.7727-1706.6395-6099.3625-1707.0836-6098.995-1707.8585-6098.293-1708.2167-6097.602-1708.2167-6097.602-1708.1925-6097.5925-1708.1477-6097.5925-1708.0578-6097.5925-1707.8855-6097.6325-1707.6565-6097.873-1707.6771-6097.1428-1707.1799-6096.85-1706.7398-6096.85-1706.4002-6096.85-1706.094-6097.0246-1706.0866-6097.3078-1706.0746-6097.733-1706.4423-6098.06-1706.6989-6098.2375-1706.5773-6098.3405-1706.4248-6098.4465-1706.2283-6098.553-1705.2612-6097.1145-1703.4837-6096.617-1702.2911-6096.617H-1698.8255C-1696.852-6096.617-1695.3756-6096.4655-1693.727-6096.4655-1692.0783-6096.4655-1691.934-6097.007-1691.2478-6097.163-1690.5621-6097.3195-1688.3958-6098.463-1687.0841-6099.859-1686.0132-6099.859-1686.4705-6099.305-1685.4356-6099.305-1685.4594-6101.435-1688.1854-6101.652-1688.1854-6101.652-1688.1854-6101.652-1688.0214-6101.709-1687.729-6101.709ZM-1692.9209-6090.496C-1692.8864-6090.0217-1692.4526-6089.812-1691.9974-6089.812-1691.8136-6089.812-1691.627-6089.846-1691.461-6089.9108-1691.3623-6089.9489-1691.272-6089.9645-1691.1876-6089.9645-1690.7785-6089.9645-1690.5022-6089.59-1690.0165-6089.59-1689.431-6089.59-1689.1984-6089.798-1689.1984-6089.798L-1687.7623-6089.1965C-1688.1791-6089.9025-1688.8771-6090.4719-1688.8771-6090.4719-1687.8182-6090.119-1686.9918-6089.5495-1686.9918-6089.5495-1687.3527-6090.496-1688.5642-6091.106-1688.5642-6091.106-1688.5642-6091.106-1688.0828-6091.3269-1687.7338-6092.3977-1687.3848-6093.4689-1686.1333-6094.323-1686.2058-6094.8889-1686.278-6095.454-1687.4208-6095.815-1688.227-6095.815-1689.0336-6095.815-1690.177-6095.3825-1690.7423-6095.358-1691.1155-6095.824-1691.529-6096.2829-1691.8583-6096.634-1692.2194-6096.4396-1692.7069-6096.235-1693.727-6096.235-1694.5194-6096.235-1695.265-6096.2697-1696.0546-6096.306-1696.9124-6096.346-1697.8-6096.3879-1698.8255-6096.3879H-1702.2911C-1703.5125-6096.3879-1705.2612-6096.8796-1706.2937-6098.249-1706.3024-6098.2429-1706.3115-6098.2375-1706.3202-6098.232-1706.0678-6098.003-1705.8456-6097.69-1705.8563-6097.3015-1705.8674-6096.9064-1706.239-6096.6198-1706.7398-6096.6198-1707.0567-6096.6198-1707.3578-6096.742-1707.565-6096.9558-1707.6648-6097.0588-1707.7758-6097.216-1707.8379-6097.4436-1707.9623-6097.3806-1708.0678-6097.3625-1708.1477-6097.3625-1708.2266-6097.3625-1708.2802-6097.3796-1708.305-6097.39-1708.3644-6097.415-1708.4108-6097.4636-1708.4326-6097.524-1708.4544-6097.584-1708.45-6097.651-1708.4207-6097.708-1708.0748-6098.3757-1707.3701-6099.0437-1706.9093-6099.4367-1707.0473-6099.855-1707.124-6100.2858-1707.1427-6100.748-1707.1427-6101.0549-1707.0944-6101.3508-1707.0143-6101.6345-1707.7377-6101.5109-1708.2167-6101.2868-1708.2167-6101.2868-1708.2167-6102.9396-1708.71-6102.711-1708.5415-6104.576-1708.3728-6106.4416-1707.9395-6107.055-1707.5424-6107.561-1707.145-6108.0666-1706.5076-6108.367-1706.5195-6108.764-1706.8507-6109.0607-1707.269-6109.124-1707.5654-6109.124-1707.7864-6109.124-1707.9395-6109.0895-1707.9395-6109.0895-1708.481-6108.391-1708.9505-6108.1989-1708.9505-6108.1989-1709.0348-6107.296-1709.5526-6105.6716-1709.9852-6104.7326-1710.4186-6103.794-1710.7557-6102.4826-1710.816-6101.9768-1710.9765-6102.0656-1711.1305-6102.0979-1711.2688-6102.0979-1711.638-6102.0979-1711.8987-6101.8688-1711.8987-6101.8688-1712.3682-6103.3127-1712.9942-6104.8288-1712.9942-6105.936-1712.9942-6107.0437-1712.8978-6107.8137-1712.585-6108.042-1712.2719-6108.2707-1711.8024-6108.68-1711.8024-6108.8967H-1713.548C-1713.548-6108.8967-1714.3779-6108.5598-1714.2214-6106.502-1714.065-6104.444-1714.4984-6103.8425-1714.1973-6102.687-1713.8966-6101.5319-1713.8003-6100.593-1713.8003-6099.2697-1713.8003-6097.9455-1714.065-6096.477-1714.7511-6095.43-1714.7511-6095.43-1714.5828-6097.199-1714.5828-6099.1608-1714.5828-6101.0847-1715.2887-6101.9899-1716.3037-6101.9899-1716.3235-6101.9899-1716.3433-6101.9895-1716.3637-6101.989-1716.2914-6101.375-1715.2326-6101.291-1715.2326-6099.462V-6094.8527C-1715.2326-6092.4338-1713.8605-6091.146-1712.3682-6091.146H-1708.4932C-1707.145-6091.146-1704.9431-6090.857-1702.9334-6090.857-1700.9235-6090.857-1700.2013-6091.182-1699.4795-6091.1945-1699.4677-6091.1945-1699.455-6091.1945-1699.443-6091.1945-1698.741-6091.1945-1698.2644-6090.857-1697.5902-6090.857-1696.9044-6090.857-1696.6275-6091.3269-1695.1712-6091.3269-1693.727-6091.3269-1693.2774-6090.6286-1693.1879-6090.6286-1693.1871-6090.6286-1693.1863-6090.6286-1693.1856-6090.6286-1692.6578-6091.3024-1691.9246-6091.3659-1691.6928-6091.3659-1691.6389-6091.3659-1691.6119-6091.3625-1691.621-6091.3625-1692.4998-6091.3024-1692.9209-6090.496-1692.9209-6090.496ZM-1754.992-6127.4016C-1754.992-6128.729-1754.6032-6129.992-1754.0205-6130.9318L-1757.4208-6133.684C-1758.9425-6132.065-1759.6223-6129.895-1759.6223-6127.8229-1759.6223-6122.5119-1754.9273-6117.7189-1745.924-6117.7189-1736.6618-6117.7189-1732.031-6122.7707-1732.031-6129.5715-1732.031-6136.631-1736.8563-6144.695-1745.082-6144.695-1747.5431-6144.695-1749.778-6143.95-1751.8506-6142.2985H-1755.8338L-1749.4863-6121.443C-1753.4369-6122.2849-1754.992-6124.7785-1754.992-6127.4016ZM-1651.4658-6136.113C-1651.1825-6135.2145-1650.6159-6133.417-1650.3324-6132.518-1649.8142-6130.8669-1650.0087-6129.442-1651.66-6129.442-1652.9555-6129.442-1654.0239-6130.381-1654.9636-6131.547L-1658.2337-6142.2985H-1662.9624L-1661.6867-6138.1286C-1662.8427-6138.8005-1664.196-6139.1496-1665.7787-6139.2219-1667.5599-6141.23-1670.118-6142.59-1673.0977-6142.59-1676.5209-6142.59-1679.0953-6140.844-1680.0755-6138.1218-1681.9933-6140.8156-1684.3914-6142.59-1687.4426-6142.59-1690.4016-6142.59-1691.7404-6140.997-1692.02-6138.8425-1693.773-6141.0935-1695.9429-6142.834-1698.808-6144.177L-1699.0029-6144.824C-1701.0108-6151.3986-1704.7343-6153.0178-1707.5198-6153.0178-1710.3699-6153.0178-1712.0536-6151.4309-1712.0536-6149.1965-1712.0536-6144.954-1706.127-6144.306-1703.3097-6143.529L-1702.4357-6140.679C-1703.6334-6141.8776-1704.9617-6142.59-1706.6134-6142.59-1709.316-6142.59-1710.627-6141.1457-1710.9008-6139.147-1712.6106-6141.266-1714.5875-6142.59-1716.8132-6142.59-1718.9181-6142.59-1719.8895-6141.4567-1720.1815-6139.9665-1721.6382-6141.586-1723.5164-6142.59-1725.5567-6142.59-1728.7954-6142.59-1730.9649-6140.4528-1730.9649-6136.6638-1730.9649-6131.255-1727.0792-6125.491-1721.9623-6125.491-1719.922-6125.491-1718.3029-6126.5275-1717.4934-6128.406L-1716.6841-6125.782H-1711.9553L-1715.4207-6137.1496C-1715.7769-6138.2507-1715.8418-6139.2868-1714.8375-6139.2868-1713.4102-6139.2868-1711.5786-6136.89-1709.8295-6133.3825L-1707.5198-6125.782H-1702.7919L-1705.7711-6135.5949C-1706.2893-6137.2468-1706.1923-6138.6716-1704.4435-6138.6716-1703.1806-6138.6716-1702.1117-6137.7326-1701.2048-6136.5666L-1697.9015-6125.782H-1693.1736L-1697.9015-6141.262C-1694.6082-6139.267-1692.7398-6136.5588-1691.1448-6133.3815L-1689.9365-6129.3449H-1691.8793L-1690.8109-6125.782H-1688.8359L-1687.5726-6121.637-1682.391-6120.2126-1684.1072-6125.782H-1679.8322L-1680.9014-6129.3449H-1685.2083L-1687.2489-6136.0158C-1687.9287-6138.2507-1687.2489-6139.2868-1685.856-6139.2868-1683.9872-6139.2868-1681.9849-6137.224-1680.4696-6134.6936-1680.0203-6130.078-1676.0586-6125.491-1670.6041-6125.491-1666.2965-6125.491-1663.1553-6128.308-1663.1553-6132.518-1663.1553-6133.9758-1663.5119-6135.4328-1664.1596-6136.7609-1662.3709-6136.2678-1661.1154-6135.0637-1660.2442-6133.4118L-1657.91-6125.782H-1653.1821L-1653.8298-6127.887C-1652.4701-6126.3659-1650.9478-6125.491-1649.1989-6125.491-1645.507-6125.491-1644.503-6128.924-1645.572-6132.3889L-1647.029-6137.1496C-1647.3858-6138.2507-1647.4179-6139.2868-1646.4463-6139.2868-1644.9888-6139.2868-1643.111-6136.793-1641.3294-6133.166-1640.7145-6133.198-1639.8078-6133.684-1639.4832-6134.0729-1641.7184-6138.963-1644.7297-6142.59-1648.4218-6142.59-1652.2106-6142.59-1652.3073-6138.8659-1651.4658-6136.113ZM-1780.2182-6089.4255C-1780.2182-6086.002-1777.4434-6083.227-1774.02-6083.227H-1723.31C-1719.2057-6077.4597-1710.4024-6073.471-1700.2013-6073.471-1690.0007-6073.471-1681.1974-6077.4597-1677.0927-6083.227H-1626.383C-1622.9597-6083.227-1620.1849-6086.002-1620.1849-6089.4255V-6120.2248H-1624.5175V-6095.1516C-1624.5175-6091.132-1627.7767-6087.8728-1631.7963-6087.8728H-1680.4649C-1684.8917-6081.9538-1692.0746-6078.1008-1700.1895-6078.1008-1708.3042-6078.1008-1715.4876-6081.9538-1719.914-6087.8728H-1768.5827C-1772.6026-6087.8728-1775.8615-6091.132-1775.8615-6095.1516V-6120.2248H-1780.2182V-6089.4255ZM-1598.1078-6141.155C-1595.7962-6137.128-1591.1725-6129.0749-1588.8609-6125.048L-1586.0919-6120.2248H-1591.6535-1616.5053V-6089.4255C-1616.5053-6083.9787-1620.9364-6079.5476-1626.383-6079.5476H-1675.3146C-1680.5866-6073.488-1689.9085-6069.7917-1700.2013-6069.7917-1710.4951-6069.7917-1719.8167-6073.488-1725.0884-6079.5476H-1774.02C-1779.4666-6079.5476-1783.8978-6083.9787-1783.8978-6089.4255V-6120.2248H-1808.726-1814.2869L-1811.5181-6125.048-1802.271-6141.155-1811.471-6158.058-1814.0612-6162.8176H-1808.6431-1783.8978V-6182.607C-1783.8978-6188.053-1779.4666-6192.4846-1774.02-6192.4846H-1626.383C-1620.9364-6192.4846-1616.5053-6188.053-1616.5053-6182.607V-6162.8176H-1591.7359-1586.3174L-1588.908-6158.058-1598.1078-6141.155" fill="#1f0909"/>
</g>
</g>
<g inkscape:groupmode="layer" inkscape:label="Layer 1">
<g clip-path="url(#clip_11)">
<path transform="matrix(1,0,0,-1,1814.287,-6069.792)" d="M-1721.4437-6129.863C-1723.679-6129.863-1725.945-6133.101-1725.945-6135.9187-1725.945-6137.6677-1725.0386-6138.6716-1723.614-6138.6716-1721.3146-6138.6716-1719.0473-6135.433-1719.0473-6132.5837-1719.0473-6130.8669-1720.0187-6129.863-1721.4437-6129.863" fill="#1f0909"/>
</g>
</g>
<g inkscape:groupmode="layer" inkscape:label="Layer 1">
<g clip-path="url(#clip_12)">
<path transform="matrix(1,0,0,-1,1814.287,-6069.792)" d="M-1670.9279-6129.3449C-1673.389-6129.3449-1675.8179-6132.195-1675.8179-6135.4006-1675.8179-6137.894-1674.3283-6138.7687-1672.903-6138.7687-1672.1581-6138.7687-1671.4137-6138.5417-1670.7334-6138.0886-1671.0571-6137.6677-1671.2516-6137.117-1671.2516-6136.5017-1671.2516-6135.0446-1670.0857-6133.8459-1668.6282-6133.8459-1668.434-6133.8459-1668.2399-6133.8786-1668.0779-6133.911-1668.0133-6133.554-1667.9483-6133.134-1667.9483-6132.745-1667.9483-6130.2189-1669.5029-6129.3449-1670.9279-6129.3449" fill="#1f0909"/>
</g>
</g>
<g inkscape:groupmode="layer" inkscape:label="Layer 1">
<g clip-path="url(#clip_13)">
<path transform="matrix(1,0,0,-1,1814.287,-6069.792)" d="M-1736.9857-6129.215C-1736.9857-6124.8757-1739.0581-6121.7346-1744.5313-6121.2165L-1750.1339-6139.546C-1748.9679-6140.4206-1747.6404-6140.712-1746.3775-6140.712-1739.8679-6140.712-1736.9857-6134.429-1736.9857-6129.215" fill="#1f0909"/>
</g>
</g>
<g inkscape:groupmode="layer" inkscape:label="Layer 1">
<g clip-path="url(#clip_14)">
<path transform="matrix(1,0,0,-1,1814.287,-6069.792)" d="M-1706.8538-6097.2185C-1706.8645-6097.2185-1706.8756-6097.2199-1706.8867-6097.223-1707.027-6097.2668-1707.2037-6097.535-1707-6097.893-1706.5302-6097.788-1706.653-6097.2185-1706.8538-6097.2185" fill="#1f0909"/>
</g>
</g>
<g inkscape:groupmode="layer" inkscape:label="Layer 1">
<g clip-path="url(#clip_15)">
<path transform="matrix(1,0,0,-1,1814.287,-6069.792)" d="M-1746.0969-6116.292C-1747.1087-6116.306-1748.1185-6116.382-1749.121-6116.519-1750.1203-6116.6525-1751.1083-6116.859-1752.0774-6117.136-1752.9838-6117.3977-1753.8643-6117.742-1754.7074-6118.1657-1755.4882-6118.5578-1756.228-6119.027-1756.9158-6119.566-1757.5662-6120.075-1758.1599-6120.653-1758.6869-6121.289-1760.2122-6123.126-1761.0477-6125.438-1761.0491-6127.825-1761.0458-6128.724-1760.9337-6129.619-1760.7155-6130.4909-1760.5105-6131.2976-1760.2046-6132.075-1759.8049-6132.805-1759.4381-6133.48-1758.9855-6134.1047-1758.4583-6134.663L-1757.551-6135.6247-1754.5556-6133.1999-1757.7588-6143.725H-1752.3367C-1751.7312-6144.1735-1751.0877-6144.5676-1750.4133-6144.9035-1749.5963-6145.311-1748.7328-6145.6179-1747.8419-6145.8166-1746.9568-6146.0104-1746.0543-6146.1125-1745.1484-6146.121-1742.5869-6146.147-1740.0755-6145.4118-1737.9328-6144.0085-1737.1403-6143.489-1736.4024-6142.891-1735.7299-6142.2238-1734.9815-6141.481-1734.3085-6140.6657-1733.7211-6139.7897-1733.0718-6138.822-1732.5183-6137.7927-1732.0684-6136.7175-1731.5949-6135.586-1731.2313-6134.411-1730.9826-6133.2097-1730.7354-6132.014-1730.6088-6130.797-1730.6049-6129.5759-1730.6029-6128.803-1730.6609-6128.0319-1730.7785-6127.268-1730.8917-6126.5246-1731.0656-6125.791-1731.2984-6125.075-1731.9508-6123.0656-1733.135-6121.2697-1734.7254-6119.878-1735.255-6119.4157-1735.8229-6118.9987-1736.423-6118.632-1737.0538-6118.2458-1737.7145-6117.9108-1738.3986-6117.63-1739.137-6117.327-1739.8967-6117.079-1740.6715-6116.888-1741.5194-6116.678-1742.3803-6116.525-1743.2483-6116.429-1744.1941-6116.324-1745.1455-6116.2785-1746.0969-6116.292ZM-1751.7097-6123.848-1753.3038-6129.0866C-1753.4766-6128.5417-1753.565-6127.9738-1753.5658-6127.402-1753.5652-6126.937-1753.4977-6126.4748-1753.3654-6126.0295-1753.2485-6125.645-1753.0719-6125.2814-1752.8419-6124.9519-1752.6104-6124.6208-1752.3319-6124.324-1752.0153-6124.073-1751.916-6123.9948-1751.8141-6123.92-1751.7097-6123.848ZM-1747.6174-6139.1555C-1747.9009-6139.0959-1748.1774-6139.0075-1748.4428-6138.8918L-1743.5232-6122.797C-1743.2149-6122.857-1742.9093-6122.9299-1742.6072-6123.016-1742.0773-6123.166-1741.5675-6123.379-1741.0886-6123.6506-1740.6945-6123.8747-1740.3324-6124.1506-1740.012-6124.471-1739.6967-6124.7888-1739.4275-6125.149-1739.2123-6125.5417-1738.9531-6126.0139-1738.763-6126.5207-1738.6478-6127.047-1738.5726-6127.3854-1738.5167-6127.728-1738.4805-6128.073-1738.4402-6128.4465-1738.4179-6128.821-1738.4135-6129.1965-1738.4065-6129.9216-1738.4639-6130.646-1738.585-6131.3615-1738.6974-6132.0417-1738.8618-6132.712-1739.0767-6133.367-1739.2658-6133.944-1739.5003-6134.505-1739.778-6135.045-1740.0142-6135.5046-1740.287-6135.944-1740.5938-6136.3596-1740.8549-6136.713-1741.1447-6137.0446-1741.46-6137.351-1741.9924-6137.8708-1742.6062-6138.3-1743.2771-6138.621-1743.9104-6138.9196-1744.5856-6139.1198-1745.2794-6139.214-1746.0564-6139.3278-1746.847-6139.3078-1747.6174-6139.1555" fill="#ffffff"/>
</g>
</g>
<g inkscape:groupmode="layer" inkscape:label="Layer 1">
<g clip-path="url(#clip_16)">
<path transform="matrix(1,0,0,-1,1814.287,-6069.792)" d="M-1746.3775-6140.712C-1747.6404-6140.712-1748.968-6140.42-1750.1339-6139.546L-1744.5313-6121.2165C-1739.0581-6121.7346-1736.9859-6124.8757-1736.9859-6129.215-1736.9859-6134.4289-1739.8679-6140.712-1746.3775-6140.712ZM-1745.9238-6117.7189C-1754.9273-6117.7189-1759.6226-6122.5119-1759.6226-6127.8229-1759.6226-6129.895-1758.9424-6132.065-1757.4207-6133.684L-1754.0204-6130.9318C-1754.6035-6129.9929-1754.9918-6128.729-1754.9918-6127.4016-1754.9918-6124.7785-1753.4368-6122.285-1749.4866-6121.443L-1755.8336-6142.2985H-1751.8505C-1749.7778-6143.95-1747.5429-6144.695-1745.0819-6144.695-1736.8562-6144.695-1732.0308-6136.631-1732.0308-6129.5715-1732.0308-6122.7707-1736.6621-6117.7189-1745.9238-6117.7189" fill="#c71b28"/>
</g>
</g>
<g inkscape:groupmode="layer" inkscape:label="Layer 1">
<g clip-path="url(#clip_17)">
<path transform="matrix(1,0,0,-1,1814.287,-6069.792)" d="M-1641.2423-6131.7429-1642.1951-6131.6848-1642.6122-6132.543C-1643.0418-6133.4279-1643.514-6134.2907-1644.0271-6135.1296-1644.3449-6135.65-1644.6934-6136.1516-1645.0707-6136.631-1645.2199-6136.821-1645.3786-6137.003-1645.5463-6137.177L-1644.2085-6132.8078C-1644.0435-6132.2717-1643.9196-6131.7238-1643.8379-6131.1687-1643.7633-6130.6579-1643.7326-6130.1418-1643.7459-6129.6257-1643.7575-6129.174-1643.81-6128.7238-1643.9032-6128.2819-1644.0558-6127.528-1644.3596-6126.8127-1644.7962-6126.1799-1645.3788-6125.35-1646.2077-6124.725-1647.165-6124.393-1647.8218-6124.1687-1648.5121-6124.0578-1649.206-6124.065-1649.9063-6124.064-1650.6017-6124.1779-1651.2651-6124.401L-1651.2514-6124.3566H-1658.9655L-1661.5678-6132.8625C-1661.6256-6132.968-1661.6863-6133.072-1661.7498-6133.1745-1661.7363-6132.9577-1661.7295-6132.7409-1661.7294-6132.5236-1661.7238-6131.628-1661.8532-6130.7365-1662.1132-6129.8796-1662.6293-6128.171-1663.7084-6126.688-1665.1749-6125.6716-1665.9456-6125.137-1666.7987-6124.733-1667.7003-6124.475-1668.6149-6124.218-1669.559-6124.0808-1670.5089-6124.0666-1671.3823-6124.0505-1672.2542-6124.1467-1673.103-6124.352-1674.866-6124.776-1676.4984-6125.625-1677.8576-6126.8249-1678.2639-6127.182-1678.6458-6127.566-1679.0011-6127.9738L-1677.9153-6124.3566H-1682.1758L-1680.263-6118.148-1688.7083-6120.4709-1689.8923-6124.3566H-1698.9566L-1702.4891-6135.8889C-1702.6078-6136.0329-1702.731-6136.1735-1702.8582-6136.31-1703.0735-6136.544-1703.3143-6136.7536-1703.5759-6136.9348-1703.7122-6137.028-1703.8587-6137.105-1704.0128-6137.164-1704.2044-6137.238-1704.4113-6137.262-1704.6146-6137.2355-1704.6243-6137.1037-1704.6198-6136.971-1704.6011-6136.8405-1704.5615-6136.5627-1704.4978-6136.289-1704.4108-6136.0227L-1700.8687-6124.3566H-1708.5773L-1711.1602-6132.8557C-1711.5659-6133.6706-1712.0093-6134.466-1712.489-6135.2395-1712.7982-6135.7395-1713.1369-6136.2209-1713.5034-6136.68-1713.6403-6136.8527-1713.7854-6137.018-1713.9381-6137.1765L-1710.0299-6124.3566H-1717.7365L-1718.0474-6125.364C-1718.5029-6125.003-1719.0103-6124.713-1719.5521-6124.5036-1720.3225-6124.208-1721.1414-6124.0598-1721.9662-6124.065-1722.6196-6124.064-1723.2708-6124.142-1723.9052-6124.2985-1724.5833-6124.4645-1725.2391-6124.711-1725.8587-6125.032-1726.5534-6125.394-1727.2035-6125.8356-1727.7957-6126.3479-1728.4705-6126.9318-1729.0786-6127.589-1729.6087-6128.3068-1730.7974-6129.925-1731.6342-6131.7736-1732.0648-6133.7346-1732.274-6134.668-1732.3836-6135.621-1732.3911-6136.5778-1732.4011-6137.428-1732.3005-6138.276-1732.0917-6139.1008-1731.9043-6139.834-1731.5991-6140.5319-1731.188-6141.1677-1730.3976-6142.384-1729.1998-6143.2785-1727.8093-6143.6916-1726.3533-6144.125-1724.8025-6144.125-1723.3466-6143.6916-1722.5646-6143.456-1721.8209-6143.109-1721.1386-6142.66-1720.9789-6142.5549-1720.8222-6142.445-1720.6685-6142.3308-1720.2177-6142.906-1719.6242-6143.3537-1718.9469-6143.6286-1718.6155-6143.764-1718.2703-6143.863-1717.9174-6143.924-1716.9928-6144.0778-1716.0464-6144.04-1715.1369-6143.8137-1714.5422-6143.6657-1713.9672-6143.4475-1713.424-6143.164-1712.7002-6142.786-1712.0285-6142.317-1711.425-6141.767-1710.999-6142.395-1710.4312-6142.9138-1709.7673-6143.281-1709.5223-6143.416-1709.2673-6143.532-1709.0048-6143.629-1709.4987-6143.8288-1709.9788-6144.0607-1710.4423-6144.323-1710.9243-6144.601-1711.3742-6144.9318-1711.7833-6145.308-1712.2808-6145.77-1712.6882-6146.3205-1712.9848-6146.9309-1713.295-6147.588-1713.4631-6148.3029-1713.4778-6149.029-1713.4992-6149.656-1713.4111-6150.2819-1713.2174-6150.878-1712.8573-6151.9699-1712.1226-6152.899-1711.1433-6153.5017-1710.6257-6153.822-1710.0619-6154.061-1709.4717-6154.2106-1708.8012-6154.3815-1708.1102-6154.459-1707.4185-6154.4416-1706.6411-6154.4245-1705.869-6154.3098-1705.1204-6154.099-1704.3865-6153.8879-1703.6852-6153.5769-1703.0363-6153.174-1702.4129-6152.7897-1701.8353-6152.3356-1701.3148-6151.82-1700.7719-6151.2819-1700.2835-6150.6916-1699.8562-6150.0578-1699.3855-6149.3596-1698.9736-6148.6237-1698.6248-6147.8576-1698.2293-6146.992-1697.8947-6146.1-1697.6232-6145.1887-1696.8562-6144.803-1696.1128-6144.373-1695.3969-6143.9006-1694.3726-6143.2219-1693.4171-6142.4455-1692.544-6141.581-1691.998-6142.4255-1691.2122-6143.0876-1690.2872-6143.4816-1689.8566-6143.6667-1689.4063-6143.8024-1688.945-6143.8859-1688.4393-6143.977-1687.9262-6144.021-1687.4124-6144.017-1686.263-6144.0148-1685.1251-6143.788-1684.0624-6143.35-1683.4712-6143.105-1682.9059-6142.801-1682.3751-6142.4436-1681.7484-6142.0217-1681.1654-6141.5388-1680.6348-6141.001-1680.5265-6140.891-1680.4197-6140.78-1680.3145-6140.667-1680.1058-6140.9475-1679.8788-6141.2136-1679.6348-6141.464-1678.81-6142.304-1677.8128-6142.955-1676.7119-6143.372-1675.5556-6143.809-1674.3283-6144.0275-1673.092-6144.0168-1671.0255-6144.0178-1669.0009-6143.4328-1667.2536-6142.329-1666.4807-6141.8376-1665.766-6141.2604-1665.1234-6140.6076-1664.7077-6140.57-1664.294-6140.512-1663.8838-6140.434L-1664.8905-6143.7248H-1657.1771L-1653.6823-6132.236C-1653.5701-6132.104-1653.4546-6131.9748-1653.3358-6131.8488-1653.125-6131.622-1652.8926-6131.417-1652.642-6131.236-1652.4638-6131.104-1652.2658-6131.001-1652.0553-6130.9318-1651.8826-6130.875-1651.6998-6130.8566-1651.5193-6130.877-1651.5015-6130.9997-1651.4992-6131.124-1651.5123-6131.2478-1651.5424-6131.5319-1651.602-6131.8117-1651.6909-6132.083L-1652.8278-6135.689C-1653.0457-6136.395-1653.1947-6137.12-1653.2727-6137.855-1653.3347-6138.428-1653.3388-6139.006-1653.2848-6139.58-1653.2432-6140.0207-1653.1546-6140.4558-1653.0203-6140.8776-1652.8104-6141.553-1652.446-6142.171-1651.956-6142.6818-1651.3967-6143.2468-1650.6924-6143.646-1649.9207-6143.837-1649.4276-6143.9597-1648.921-6144.02-1648.4129-6144.0168-1647.3627-6144.0104-1646.3263-6143.7775-1645.3745-6143.3337-1644.6029-6142.9719-1643.8839-6142.5075-1643.2369-6141.9528-1642.8327-6141.61-1642.45-6141.2429-1642.0913-6140.853-1641.6536-6140.3776-1641.2437-6139.8767-1640.8638-6139.3537-1640.3847-6138.6955-1639.9424-6138.011-1639.5387-6137.3049-1639.0486-6136.446-1638.5973-6135.5656-1638.1864-6134.666L-1637.803-6133.827-1638.4108-6133.1335C-1638.5877-6132.9318-1638.789-6132.7526-1639.0099-6132.6-1639.4635-6132.281-1639.9658-6132.0368-1640.4973-6131.8776-1640.7395-6131.803-1640.9895-6131.7585-1641.2423-6131.7429ZM-1691.8526-6130.771-1692.4758-6132.853C-1692.9696-6133.832-1693.5204-6134.7814-1694.1251-6135.696-1694.4295-6136.1545-1694.7597-6136.5949-1695.1137-6137.016L-1693.2063-6130.771H-1691.8526ZM-1680.8294-6130.771C-1680.9724-6131.0739-1681.1028-6131.3825-1681.2205-6131.696-1681.5267-6132.51-1681.7382-6133.356-1681.8506-6134.2185-1682.0542-6134.545-1682.2686-6134.865-1682.493-6135.1779-1682.9063-6135.7604-1683.3746-6136.302-1683.8916-6136.7946-1684.1868-6137.0769-1684.5125-6137.3249-1684.8626-6137.535-1685.0558-6137.651-1685.263-6137.7419-1685.479-6137.805-1685.604-6137.8415-1685.7335-6137.8605-1685.8637-6137.861-1685.9285-6137.8615-1685.9932-6137.8547-1686.0567-6137.8415-1686.0763-6137.7648-1686.0869-6137.6857-1686.0883-6137.6066-1686.0911-6137.454-1686.08-6137.3015-1686.0547-6137.151-1686.0147-6136.9089-1685.9583-6136.6696-1685.8859-6136.435L-1684.1535-6130.771H-1680.8294ZM-1669.3809-6132.4919C-1670.399-6132.686-1671.3036-6133.264-1671.9074-6134.1066-1672.4089-6134.8039-1672.6786-6135.6408-1672.6784-6136.499-1672.6796-6136.776-1672.653-6137.052-1672.5988-6137.3229-1672.8402-6137.356-1673.0855-6137.347-1673.3239-6137.2966-1673.5088-6137.256-1673.6823-6137.175-1673.8314-6137.058-1673.9581-6136.9548-1674.0623-6136.826-1674.1372-6136.6809-1674.2512-6136.4538-1674.3251-6136.2087-1674.3554-6135.956-1674.3803-6135.7746-1674.3925-6135.5915-1674.3919-6135.4079-1674.3842-6134.139-1673.9232-6132.915-1673.0924-6131.9567-1672.8532-6131.6809-1672.5789-6131.4377-1672.2769-6131.2326-1672.0454-6131.076-1671.7932-6130.953-1671.5274-6130.8669-1671.1946-6130.7585-1670.8386-6130.7419-1670.4972-6130.8195-1670.298-6130.8625-1670.1111-6130.95-1669.9508-6131.076-1669.8182-6131.1848-1669.7094-6131.319-1669.6307-6131.4709-1669.5155-6131.6999-1669.441-6131.947-1669.4105-6132.201-1669.3966-6132.2976-1669.3867-6132.3947-1669.3809-6132.4919ZM-1723.6294-6137.2458C-1723.7437-6137.246-1723.8573-6137.2297-1723.9666-6137.1965-1724.1018-6137.1535-1724.2172-6137.0637-1724.2918-6136.943-1724.3594-6136.835-1724.4093-6136.717-1724.4395-6136.5935-1724.4923-6136.371-1724.519-6136.143-1724.5192-6135.914-1724.5202-6135.642-1724.4938-6135.37-1724.4407-6135.103-1724.2389-6134.0788-1723.7789-6133.1228-1723.1041-6132.3259-1722.9284-6132.1198-1722.7337-6131.9309-1722.5222-6131.761-1722.3733-6131.6418-1722.2123-6131.5378-1722.0418-6131.451-1721.9312-6131.395-1721.8146-6131.3518-1721.6943-6131.3215-1721.489-6131.272-1721.2742-6131.28-1721.0728-6131.343-1720.917-6131.391-1720.7836-6131.493-1720.696-6131.631-1720.6293-6131.736-1720.5796-6131.85-1720.549-6131.9709-1720.4984-6132.1755-1720.473-6132.3859-1720.4736-6132.597-1720.4734-6132.8737-1720.5004-6133.1496-1720.5543-6133.4206-1720.755-6134.4479-1721.2174-6135.406-1721.8969-6136.2019-1722.0736-6136.407-1722.2694-6136.595-1722.4818-6136.7639-1722.6365-6136.8869-1722.804-6136.993-1722.981-6137.0808-1723.1814-6137.1857-1723.4035-6137.2419-1723.6294-6137.2458ZM-1707.9649-6149.0017C-1708.0086-6149.004-1708.0524-6148.998-1708.0939-6148.984-1708.0668-6148.946-1708.0352-6148.911-1707.9998-6148.8806-1707.9155-6148.807-1707.8244-6148.7419-1707.7278-6148.685-1707.563-6148.5886-1707.3919-6148.503-1707.2155-6148.429-1707.0621-6148.367-1706.9074-6148.3088-1706.7515-6148.253-1706.8439-6148.363-1706.9428-6148.468-1707.0473-6148.5666-1707.1654-6148.6779-1707.2962-6148.775-1707.437-6148.8557-1707.5968-6148.9509-1707.779-6149.001-1707.9649-6149.0017" fill="#ffffff"/>
</g>
</g>
<g inkscape:groupmode="layer" inkscape:label="Layer 1">
<g clip-path="url(#clip_18)">
<path transform="matrix(1,0,0,-1,1814.287,-6069.792)" d="M-1668.0778-6133.9108C-1668.2398-6133.8786-1668.434-6133.8459-1668.6284-6133.8459-1670.0856-6133.8459-1671.252-6135.0446-1671.252-6136.502-1671.252-6137.117-1671.0574-6137.6677-1670.7333-6138.0886-1671.4135-6138.5417-1672.1583-6138.7687-1672.9031-6138.7687-1674.3283-6138.7687-1675.8178-6137.894-1675.8178-6135.4006-1675.8178-6132.195-1673.3888-6129.3449-1670.9279-6129.3449-1669.5032-6129.3449-1667.9483-6130.2189-1667.9483-6132.745-1667.9483-6133.1335-1668.0132-6133.5549-1668.0778-6133.9108ZM-1707.941-6150.427C-1708.977-6150.427-1709.5276-6149.747-1709.5276-6149.0026-1709.5276-6147.2536-1706.5809-6146.6706-1704.0874-6146.055-1704.9618-6148.8405-1706.386-6150.427-1707.941-6150.427ZM-1723.6139-6138.6716C-1725.0386-6138.6716-1725.945-6137.6677-1725.945-6135.9187-1725.945-6133.1018-1723.679-6129.863-1721.4437-6129.863-1720.0187-6129.863-1719.0473-6130.8669-1719.0473-6132.5837-1719.0473-6135.433-1721.3145-6138.6716-1723.6139-6138.6716ZM-1641.329-6133.166C-1643.1106-6136.793-1644.9889-6139.287-1646.446-6139.287-1647.4179-6139.287-1647.3858-6138.2507-1647.0292-6137.149L-1645.5717-6132.3889C-1644.5032-6128.924-1645.5071-6125.491-1649.199-6125.491-1650.9478-6125.491-1652.4702-6126.365-1653.8298-6127.887L-1653.1821-6125.782H-1657.91L-1660.2443-6133.412C-1661.1154-6135.0637-1662.3709-6136.267-1664.1592-6136.7609-1663.5119-6135.433-1663.1553-6133.9758-1663.1553-6132.518-1663.1553-6128.308-1666.2966-6125.491-1670.6043-6125.491-1676.0586-6125.491-1680.0204-6130.078-1680.4696-6134.694-1681.985-6137.2248-1683.9872-6139.287-1685.856-6139.287-1687.2489-6139.287-1687.9284-6138.2507-1687.2489-6136.0158L-1685.2083-6129.3449H-1680.9015L-1679.8322-6125.782H-1684.1073L-1682.3911-6120.212-1687.5726-6121.637-1688.8356-6125.782H-1690.8109L-1691.8794-6129.3449H-1689.9365L-1691.1449-6133.381C-1692.7399-6136.5588-1694.6082-6139.267-1697.9016-6141.262L-1693.1737-6125.782H-1697.9016L-1701.205-6136.5666C-1702.1117-6137.7326-1703.1802-6138.6716-1704.4436-6138.6716-1706.1923-6138.6716-1706.2893-6137.2468-1705.7711-6135.5949L-1702.7919-6125.782H-1707.5198L-1709.8295-6133.383C-1711.5786-6136.8908-1713.4102-6139.287-1714.8375-6139.287-1715.8414-6139.287-1715.7765-6138.2507-1715.4207-6137.149L-1711.9555-6125.782H-1716.6837L-1717.493-6128.406C-1718.3025-6126.5275-1719.922-6125.491-1721.9623-6125.491-1727.0792-6125.491-1730.9649-6131.2556-1730.9649-6136.6638-1730.9649-6140.4528-1728.7955-6142.5905-1725.5568-6142.5905-1723.5165-6142.5905-1721.6382-6141.5866-1720.1815-6139.967-1719.8895-6141.4567-1718.9181-6142.5905-1716.8132-6142.5905-1714.5872-6142.5905-1712.6107-6141.2658-1710.9008-6139.147-1710.6266-6141.1457-1709.316-6142.5905-1706.6134-6142.5905-1704.9618-6142.5905-1703.6334-6141.8776-1702.4358-6140.679L-1703.3097-6143.5295C-1706.127-6144.3068-1712.0536-6144.9538-1712.0536-6149.1965-1712.0536-6151.4309-1710.3699-6153.0178-1707.5198-6153.0178-1704.7344-6153.0178-1701.0108-6151.3986-1699.0029-6144.8249L-1698.808-6144.177C-1695.9429-6142.834-1693.7727-6141.0935-1692.02-6138.842-1691.7404-6140.9978-1690.4017-6142.5905-1687.4426-6142.5905-1684.3914-6142.5905-1681.9933-6140.816-1680.0755-6138.1218-1679.0953-6140.8439-1676.521-6142.5905-1673.0977-6142.5905-1670.1177-6142.5905-1667.5596-6141.2297-1665.7788-6139.2219-1664.196-6139.1496-1662.8428-6138.8005-1661.6867-6138.1286L-1662.9624-6142.2985H-1658.2337L-1654.9633-6131.547C-1654.024-6130.381-1652.9555-6129.442-1651.66-6129.442-1650.0088-6129.442-1649.8139-6130.8669-1650.3324-6132.518L-1651.466-6136.1135C-1652.3074-6138.8659-1652.2107-6142.5905-1648.4218-6142.5905-1644.7294-6142.5905-1641.7185-6138.963-1639.4833-6134.0729-1639.8078-6133.684-1640.7146-6133.1989-1641.329-6133.166" fill="#c71b28"/>
</g>
</g>
<g inkscape:groupmode="layer" inkscape:label="Layer 1">
<g clip-path="url(#clip_19)">
<path transform="matrix(1,0,0,-1,1814.287,-6069.792)" d="M-1653.5838-6148.669-1653.7467-6148.621C-1654.972-6148.2604-1655.2272-6148.185-1655.2272-6147.6945-1655.2272-6147.1506-1654.7709-6146.957-1654.3807-6146.957-1653.7022-6146.957-1653.3474-6147.254-1653.2973-6147.863H-1652.2997C-1652.3248-6146.726-1653.0792-6146.05-1654.3297-6146.05-1655.2407-6146.05-1656.221-6146.5988-1656.221-6147.8039-1656.221-6148.899-1655.4392-6149.2287-1654.7067-6149.4509-1654.5944-6149.485-1654.4823-6149.5168-1654.3724-6149.548-1653.7272-6149.7297-1653.1182-6149.901-1653.1182-6150.496-1653.1182-6151.242-1653.9396-6151.3005-1654.1906-6151.3005-1654.9295-6151.3005-1655.3782-6150.8879-1655.4017-6150.193H-1656.396C-1656.3904-6150.7756-1656.2107-6151.249-1655.8616-6151.6018-1655.475-6151.9929-1654.8972-6152.2077-1654.2349-6152.2077-1652.9329-6152.2077-1652.1244-6151.4938-1652.1244-6150.3449-1652.1244-6149.0808-1653.1469-6148.792-1653.5838-6148.669" fill="#ffffff"/>
</g>
</g>
<g inkscape:groupmode="layer" inkscape:label="Layer 1">
<g clip-path="url(#clip_20)">
<path transform="matrix(1,0,0,-1,1814.287,-6069.792)" d="M-1725.9061-6146.9528V-6146.206H-1729.782V-6152.2258H-1725.9061V-6151.4787H-1728.8379V-6149.096H-1726.3493V-6148.3498H-1728.8379V-6146.9528H-1725.9061" fill="#ffffff"/>
</g>
</g>
<g inkscape:groupmode="layer" inkscape:label="Layer 1">
<g clip-path="url(#clip_21)">
<path transform="matrix(1,0,0,-1,1814.287,-6069.792)" d="M-1718.3309-6152.2258V-6147.066H-1716.8644V-6146.206H-1720.7407V-6147.066H-1719.2742V-6152.2258H-1718.3309" fill="#ffffff"/>
</g>
</g>
<g inkscape:groupmode="layer" inkscape:label="Layer 1">
<g clip-path="url(#clip_22)">
<path transform="matrix(1,0,0,-1,1814.287,-6069.792)" d="M-1661.1663-6147.066H-1659.7001V-6152.2258H-1658.7565V-6147.066H-1657.2899V-6146.2058H-1661.1663V-6147.066" fill="#ffffff"/>
</g>
</g>
<g inkscape:groupmode="layer" inkscape:label="Layer 1">
<g clip-path="url(#clip_23)">
<path transform="matrix(1,0,0,-1,1814.287,-6069.792)" d="M-1736.4024-6146.206-1736.9224-6152.2258H-1735.9788L-1735.6268-6148.1496-1734.0778-6151.29-1732.5288-6148.1496-1732.1766-6152.2258H-1731.2333L-1731.753-6146.206H-1732.3919L-1734.0778-6149.4777-1735.7636-6146.206H-1736.4024" fill="#ffffff"/>
</g>
</g>
<g inkscape:groupmode="layer" inkscape:label="Layer 1">
<g clip-path="url(#clip_24)">
<path transform="matrix(1,0,0,-1,1814.287,-6069.792)" d="M-1723.4594-6150.562-1722.8939-6148.4138-1722.3292-6150.562H-1723.4594ZM-1721.8914-6152.2258H-1720.9517L-1722.5353-6146.2058H-1723.253L-1724.8372-6152.2258H-1723.8975L-1723.6862-6151.424H-1722.1026L-1721.8914-6152.2258" fill="#ffffff"/>
</g>
</g>
<g inkscape:groupmode="layer" inkscape:label="Layer 1">
<g clip-path="url(#clip_25)">
<path transform="matrix(1,0,0,-1,1814.287,-6069.792)" d="M-1694.17-6149.7678H-1695.0567V-6146.942H-1694.17C-1693.3909-6146.942-1692.757-6147.576-1692.757-6148.3547-1692.757-6149.134-1693.3909-6149.7678-1694.17-6149.7678ZM-1694.0018-6146.206H-1696.0007V-6152.2258H-1695.0567V-6150.504H-1694.0018C-1692.8171-6150.504-1691.8532-6149.54-1691.8532-6148.3547-1691.8532-6147.17-1692.8171-6146.206-1694.0018-6146.206" fill="#ffffff"/>
</g>
</g>
<g inkscape:groupmode="layer" inkscape:label="Layer 1">
<g clip-path="url(#clip_26)">
<path transform="matrix(1,0,0,-1,1814.287,-6069.792)" d="M-1688.6015-6149.7678H-1689.4885V-6146.942H-1688.6015C-1687.8223-6146.942-1687.1884-6147.576-1687.1884-6148.3547-1687.1884-6149.134-1687.8223-6149.7678-1688.6015-6149.7678ZM-1687.3401-6150.195C-1686.6795-6149.8015-1686.2849-6149.1135-1686.2849-6148.3547-1686.2849-6147.17-1687.2484-6146.206-1688.4332-6146.206H-1690.4321V-6152.2258H-1689.4885V-6150.504H-1688.4332C-1688.4129-6150.504-1688.3934-6150.5007-1688.3734-6150.4987-1688.3543-6150.4958-1688.3352-6150.4929-1688.3152-6150.4919L-1688.2814-6150.4899-1687.1895-6152.2258H-1686.1326L-1687.3911-6150.225-1687.3401-6150.195" fill="#ffffff"/>
</g>
</g>
<g inkscape:groupmode="layer" inkscape:label="Layer 1">
<g clip-path="url(#clip_27)">
<path transform="matrix(1,0,0,-1,1814.287,-6069.792)" d="M-1682.0319-6147.2019C-1680.9168-6147.2019-1680.0094-6148.1086-1680.0094-6149.224-1680.0094-6150.339-1680.9168-6151.246-1682.0319-6151.246-1683.1473-6151.246-1684.054-6150.339-1684.054-6149.224-1684.054-6148.1086-1683.1473-6147.2019-1682.0319-6147.2019ZM-1682.0319-6152.3317C-1680.3179-6152.3317-1678.9243-6150.9377-1678.9243-6149.224-1678.9243-6147.51-1680.3179-6146.116-1682.0319-6146.116-1683.7459-6146.116-1685.1398-6147.51-1685.1398-6149.224-1685.1398-6150.9377-1683.7459-6152.3317-1682.0319-6152.3317" fill="#ffffff"/>
</g>
</g>
<g inkscape:groupmode="layer" inkscape:label="Layer 1">
<g clip-path="url(#clip_28)">
<path transform="matrix(1,0,0,-1,1814.287,-6069.792)" d="M-1676.51-6151.4895V-6146.942H-1676.4518C-1675.1921-6146.942-1674.1723-6147.962-1674.1723-6149.216-1674.1723-6150.469-1675.1921-6151.4895-1676.4462-6151.4895H-1676.51ZM-1673.0095-6149.216C-1673.0095-6147.556-1674.3596-6146.206-1676.0194-6146.206H-1677.4536V-6152.2258H-1676.0194C-1674.3596-6152.2258-1673.0095-6150.8757-1673.0095-6149.216" fill="#ffffff"/>
</g>
</g>
<g inkscape:groupmode="layer" inkscape:label="Layer 1">
<g clip-path="url(#clip_29)">
<path transform="matrix(1,0,0,-1,1814.287,-6069.792)" d="M-1666.8364-6149.224C-1666.8364-6150.9377-1665.4424-6152.3317-1663.7284-6152.3317-1663.2379-6152.3317-1662.7485-6152.213-1662.3117-6151.989V-6150.6555C-1662.691-6151.032-1663.2-6151.246-1663.7284-6151.246-1664.8439-6151.246-1665.7509-6150.339-1665.7509-6149.224-1665.7509-6148.109-1664.8439-6147.2019-1663.7284-6147.2019-1663.2-6147.2019-1662.691-6147.4157-1662.3117-6147.7927V-6146.459C-1662.7485-6146.235-1663.2379-6146.1159-1663.7284-6146.1159-1665.4424-6146.1159-1666.8364-6147.5104-1666.8364-6149.224" fill="#ffffff"/>
</g>
</g>
<g inkscape:groupmode="layer" inkscape:label="Layer 1">
<g clip-path="url(#clip_30)">
<path transform="matrix(1,0,0,-1,1814.287,-6069.792)" d="M-1668.0526-6150.349V-6146.206H-1668.9962V-6150.349C-1668.9962-6150.864-1669.4147-6151.2819-1669.9287-6151.2819-1670.4428-6151.2819-1670.8609-6150.864-1670.8609-6150.349V-6146.206H-1671.8049V-6150.349C-1671.8049-6151.384-1670.9633-6152.225-1669.9287-6152.225-1668.8947-6152.225-1668.0526-6151.384-1668.0526-6150.349" fill="#ffffff"/>
</g>
</g>
<g inkscape:groupmode="layer" inkscape:label="Layer 1">
<g clip-path="url(#clip_31)">
<g inkscape:groupmode="layer" inkscape:label="Layer 1">
<g clip-path="url(#clip_32)">
<path transform="matrix(1,0,0,-1,1814.287,-6069.792)" d="M-1717.3799-6161.3977H-1718.4214V-6168.548H-1715.1681V-6167.607H-1717.3799V-6161.3977" fill="#ffffff"/>
</g>
</g>
<g inkscape:groupmode="layer" inkscape:label="Layer 1">
<g clip-path="url(#clip_33)">
<path transform="matrix(1,0,0,-1,1814.287,-6069.792)" d="M-1684.5432-6168.548H-1683.5021V-6161.3977H-1684.5432V-6168.548" fill="#ffffff"/>
</g>
</g>
<g inkscape:groupmode="layer" inkscape:label="Layer 1">
<g clip-path="url(#clip_34)">
<path transform="matrix(1,0,0,-1,1814.287,-6069.792)" d="M-1727.2116-6161.3977-1729.2694-6165.3908-1731.3272-6161.3977H-1732.0236L-1732.6409-6168.548H-1731.6002L-1731.1659-6163.517-1729.2694-6167.363-1727.3726-6163.517-1726.9381-6168.548H-1725.8975L-1726.5151-6161.3977H-1727.2116" fill="#ffffff"/>
</g>
</g>
<g inkscape:groupmode="layer" inkscape:label="Layer 1">
<g clip-path="url(#clip_35)">
<path transform="matrix(1,0,0,-1,1814.287,-6069.792)" d="M-1693.789-6161.3977-1695.8467-6165.3908-1697.9044-6161.3977H-1698.6013L-1699.2186-6168.548H-1698.1784L-1697.7437-6163.517-1695.8467-6167.363-1693.9501-6163.517-1693.5158-6168.548H-1692.4751L-1693.0928-6161.3977H-1693.789" fill="#ffffff"/>
</g>
</g>
<g inkscape:groupmode="layer" inkscape:label="Layer 1">
<g clip-path="url(#clip_36)">
<path transform="matrix(1,0,0,-1,1814.287,-6069.792)" d="M-1722.8834-6166.6398-1722.1419-6163.8225-1721.4011-6166.6398H-1722.8834ZM-1722.5385-6161.3977-1724.4192-6168.548H-1723.3853L-1723.1316-6167.583H-1721.153L-1720.8997-6168.548H-1719.8654L-1721.7466-6161.3977H-1722.5385" fill="#ffffff"/>
</g>
</g>
<g inkscape:groupmode="layer" inkscape:label="Layer 1">
<g clip-path="url(#clip_37)">
<path transform="matrix(1,0,0,-1,1814.287,-6069.792)" d="M-1663.2846-6166.6398-1662.5429-6163.8225-1661.8023-6166.6398H-1663.2846ZM-1662.9395-6161.3977-1664.8198-6168.548H-1663.7859L-1663.5322-6167.583H-1661.554L-1661.2999-6168.548H-1660.2664L-1662.1469-6161.3977H-1662.9395" fill="#ffffff"/>
</g>
</g>
<g inkscape:groupmode="layer" inkscape:label="Layer 1">
<g clip-path="url(#clip_38)">
<path transform="matrix(1,0,0,-1,1814.287,-6069.792)" d="M-1704.1928-6167.4636C-1705.5609-6167.4636-1706.674-6166.35-1706.674-6164.9826-1706.674-6163.6149-1705.5609-6162.5017-1704.1928-6162.5017-1702.8251-6162.5017-1701.712-6163.6149-1701.712-6164.9826-1701.712-6166.35-1702.8251-6167.4636-1704.1928-6167.4636ZM-1704.1928-6161.289C-1706.2293-6161.289-1707.8861-6162.9465-1707.8861-6164.9826-1707.8861-6167.019-1706.2293-6168.6755-1704.1928-6168.6755-1702.1567-6168.6755-1700.4999-6167.019-1700.4999-6164.9826-1700.4999-6162.9465-1702.1567-6161.289-1704.1928-6161.289" fill="#ffffff"/>
</g>
</g>
<g inkscape:groupmode="layer" inkscape:label="Layer 1">
<g clip-path="url(#clip_39)">
<path transform="matrix(1,0,0,-1,1814.287,-6069.792)" d="M-1678.0025-6167.4636C-1679.3701-6167.4636-1680.4828-6166.35-1680.4828-6164.9826-1680.4828-6163.6149-1679.3701-6162.5017-1678.0025-6162.5017-1676.6347-6162.5017-1675.5215-6163.6149-1675.5215-6164.9826-1675.5215-6166.35-1676.6347-6167.4636-1678.0025-6167.4636ZM-1678.0025-6161.289C-1680.038-6161.289-1681.6948-6162.9465-1681.6948-6164.9826-1681.6948-6167.019-1680.038-6168.6755-1678.0025-6168.6755-1675.9663-6168.6755-1674.3095-6167.019-1674.3095-6164.9826-1674.3095-6162.9465-1675.9663-6161.289-1678.0025-6161.289" fill="#ffffff"/>
</g>
</g>
<g inkscape:groupmode="layer" inkscape:label="Layer 1">
<g clip-path="url(#clip_40)">
<path transform="matrix(1,0,0,-1,1814.287,-6069.792)" d="M-1714.3948-6164.983C-1714.3948-6167.0187-1712.7384-6168.676-1710.7015-6168.676-1710.1286-6168.676-1709.5567-6168.539-1709.0435-6168.281V-6166.8156C-1709.4995-6167.23-1710.0895-6167.4636-1710.7015-6167.4636-1712.07-6167.4636-1713.1828-6166.3508-1713.1828-6164.983-1713.1828-6163.615-1712.07-6162.5017-1710.7015-6162.5017-1710.0895-6162.5017-1709.4995-6162.735-1709.0435-6163.15V-6161.684C-1709.5567-6161.426-1710.1286-6161.2897-1710.7015-6161.2897-1712.7384-6161.2897-1714.3948-6162.9465-1714.3948-6164.983" fill="#ffffff"/>
</g>
</g>
<g inkscape:groupmode="layer" inkscape:label="Layer 1">
<g clip-path="url(#clip_41)">
<path transform="matrix(1,0,0,-1,1814.287,-6069.792)" d="M-1691.4624-6170.0417H-1690.4848L-1689.7839-6167.865H-1690.7611L-1691.4624-6170.0417" fill="#ffffff"/>
</g>
</g>
<g inkscape:groupmode="layer" inkscape:label="Layer 1">
<g clip-path="url(#clip_42)">
<path transform="matrix(1,0,0,-1,1814.287,-6069.792)" d="M-1667.9437-6166.1188-1669.0853-6161.3977H-1669.8977L-1671.0184-6166.1247-1671.997-6161.3977H-1673.034L-1671.5534-6168.548H-1670.4679L-1669.4815-6163.7839-1668.495-6168.548H-1667.4096L-1665.929-6161.3977H-1666.966L-1667.9437-6166.1188" fill="#ffffff"/>
</g>
</g>
</g>
</g>
</g>
</svg>
